<?xml version="1.0" standalone="no"?><!DOCTYPE svg PUBLIC "-//W3C//DTD SVG 1.1//EN" "http://www.w3.org/Graphics/SVG/1.1/DTD/svg11.dtd"><svg class="icon" width="200px" height="200.00px" viewBox="0 0 1024 1024" version="1.1" xmlns="http://www.w3.org/2000/svg"><path d="M2.27555555 511.88622222c0 281.48622222 227.89688889 509.38311111 509.38311112 509.38311111s509.38311111-227.89688889 509.38311111-509.38311111S793.14488889 2.50311111 511.65866667 2.50311111 2.27555555 230.4 2.27555555 511.88622222z" fill="#B2C03F" /><path d="M400.72533333 319.94311111l-113.89155555-90.79466666c-12.17422222-9.78488889-29.80977778-3.072-32.31288889 12.17422222-9.10222222 49.94844445-17.63555555 144.384 40.84622222 180.33777778l105.35822222-101.71733334z" fill="#E28680" /><path d="M414.15111111 357.71733333l-111.50222222 56.66133334-9.78488889-3.64088889c-27.42044445-27.98933333 17.63555555-120.60444445 20.13866667-124.928l101.14844444 71.90755555z" fill="#621A1C" /><path d="M623.72977778 319.94311111l113.89155555-90.79466666c12.17422222-9.78488889 29.80977778-3.072 32.31288889 12.17422222 9.10222222 49.94844445 17.63555555 144.384-40.84622222 180.33777778l-105.35822222-101.71733334z" fill="#E28680" /><path d="M610.304 357.71733333l111.50222222 56.66133334 9.78488889-3.64088889c27.42044445-27.98933333-17.63555555-120.60444445-20.13866666-124.928l-101.14844445 71.90755555z" fill="#621A1C" /><path d="M313.57155555 285.24088889c-2.38933333 4.20977778-47.55911111 97.50755555-20.13866666 124.928-40.16355555-24.34844445-39.02577778-90.22577778-32.88177778-128.56888889 2.38933333-15.24622222 20.70755555-22.528 32.88177778-12.74311111l20.13866666 16.384zM710.88355555 285.24088889c2.38933333 4.20977778 47.55911111 97.50755555 20.13866667 124.928 40.16355555-24.34844445 39.02577778-90.22577778 32.88177778-128.56888889-2.38933333-15.24622222-20.70755555-22.528-32.88177778-12.74311111l-20.13866667 16.384z" fill="#C8544E" /><path d="M871.65155555 661.27644445l-2.38933333 2.38933333 2.38933333-2.38933333c1.82044445 61.55377778-34.70222222 113.32266667-63.9431111 144.95288888-16.49777778 17.63555555-38.34311111 30.49244445-63.37422223 37.77422222-2.38933333 0.56888889-4.89244445 1.25155555-7.28177777 1.82044445-0.56888889 0-1.25155555 0-1.82044445 0.56888889-1.82044445 0.56888889-4.20977778 0.56888889-6.71288889 1.25155556h-1.25155556c-1.82044445 0-3.64088889 0.56888889-6.144 0.56888888-1.25155555 0-2.38933333 0-3.64088888 0.56888889-2.38933333 0-4.89244445 0.56888889-7.28177778 0.56888889-35.38488889 1.82044445-76.8 0-112.75377778-2.38933333-3.64088889 0-6.71288889-0.56888889-10.35377778-0.56888889-4.20977778 0-7.96444445-0.56888889-12.17422222-1.25155556h-1.25155556s-21.95911111-33.56444445-62.12266666-33.56444444-62.12266667 33.67822222-62.12266667 33.67822222h-1.25155555c-3.64088889 0-7.96444445 0.56888889-12.17422222 1.25155556-3.64088889 0-7.28177778 0.56888889-10.92266667 0.56888888-35.95377778 2.38933333-77.36888889 4.20977778-112.07111111 2.38933334-11.60533333-0.56888889-23.09688889-2.38933333-34.13333334-5.46133334-25.03111111-6.71288889-46.87644445-20.13866667-63.37422222-37.77422222-29.24088889-31.63022222-65.19466667-83.51288889-63.94311111-144.95288888l2.38933333 1.82044444-2.38933333-1.82044444c1.25155555-34.13333333 13.42577778-70.656 45.73866667-107.86133334 2.38933333-3.072 4.89244445-5.46133333 7.28177778-8.53333333 10.35377778-0.56888889 23.77955555 2.38933333 33.56444444-1.82044445 8.53333333-3.64088889 13.99466667-12.17422222 18.88711111-18.88711111 6.71288889-9.10222222 13.42577778-18.88711111 19.456-28.672 23.09688889-36.52266667 44.48711111-77.36888889 77.36888889-105.35822222 53.58933333-45.73866667 157.24088889 20.70755555 157.24088889 20.70755555s103.53777778-66.44622222 157.24088889-20.70755555c33.56444445 27.98933333 54.84088889 69.40444445 77.36888888 105.35822222 6.144 9.78488889 12.17422222 19.456 19.456 28.672 4.89244445 6.71288889 10.92266667 15.24622222 18.88711112 18.88711111 9.78488889 4.89244445 23.09688889 1.82044445 33.56444444 1.82044445 2.38933333 3.072 4.89244445 5.46133333 7.28177778 8.53333333 33.45066667 37.77422222 45.62488889 74.41066667 46.76266666 107.86133334z" fill="#E89D95" /><path d="M660.25244445 811.57688889s-32.31288889-92.04622222-99.8968889-107.86133334l-1.82044444 69.40444445h-92.61511111l-1.82044445-69.40444445c-67.01511111 15.81511111-99.89688889 107.86133333-99.89688888 107.86133334s-1.82044445 71.90755555 124.24533333 71.90755556l-30.49244445-51.2c9.78488889-13.42577778 27.42044445-32.88177778 53.58933334-32.88177778s45.056 19.456 54.84088889 32.88177778L536.00711111 882.91555555c126.06577778 0.56888889 124.24533333-71.33866667 124.24533334-71.33866666z" fill="#E59186" /><path d="M39.48088889 703.82933333l2.38933333 2.38933334zM41.87022222 706.21866667l-2.38933333-2.38933334z" fill="#E27135" /><path d="M574.35022222 845.14133333c-0.56888889 3.64088889-5.46133333 29.24088889-39.02577777 38.34311112-6.71288889 1.82044445-13.99466667-6.144-23.0968889-6.144s-17.06666667 7.28177778-23.77955555 5.46133333c-33.56444445-9.78488889-37.77422222-35.95377778-38.34311111-38.34311111 0 0 21.27644445-45.73866667 61.55377778-45.73866667 39.59466667 1.36533333 62.69155555 46.42133333 62.69155555 46.42133333z" fill="#D75955" /><path d="M512.22755555 812.25955555c-39.59466667 0-62.12266667 33.56444445-62.12266666 33.56444445 0 2.38933333 4.89244445 29.24088889 38.34311111 38.34311111 6.71288889 1.82044445 14.67733333-4.89244445 23.77955555-4.89244444s16.49777778 6.71288889 23.0968889 5.46133333c33.56444445-8.53333333 38.34311111-35.38488889 39.02577777-38.34311111 0-1.25155555-22.528-34.13333333-62.12266667-34.13333334z" fill="#C8544E" /><path d="M660.25244445 811.57688889l-85.90222223 33.56444444s-23.09688889-45.73866667-62.80533333-45.73866666c-39.59466667 0-61.55377778 45.73866667-61.55377778 45.73866666L364.08888889 811.57688889s32.31288889-92.04622222 99.89688889-107.86133334l1.82044444 69.40444445h92.61511111l1.82044445-69.40444445c67.69777778 15.92888889 100.01066667 107.86133333 100.01066667 107.86133334z" fill="#EFAD9D" /><path d="M756.96355555 456.36266667c-41.984-76.11733333-119.46666667-194.33244445-185.7991111-166.912-15.81511111 6.71288889-33.56444445 10.35377778-50.51733334 11.60533333h-17.63555556c-17.63555555-1.25155555-34.70222222-4.89244445-50.51733333-11.60533333-67.01511111-27.42044445-144.384 90.79466667-185.79911111 166.912-17.06666667 31.06133333-37.77422222 60.87111111-60.87111111 88.97422222 10.35377778-0.56888889 23.77955555 2.38933333 33.56444445-1.82044444 8.53333333-3.64088889 13.99466667-12.17422222 18.8871111-18.88711112 6.71288889-9.10222222 13.42577778-18.88711111 19.456-28.672 23.09688889-36.52266667 44.48711111-77.36888889 77.3688889-105.35822222 17.06666667-14.67733333 39.02577778-17.63555555 60.8711111-15.24622222 16.49777778 1.82044445 32.88177778 6.144 47.55911112 11.60533333l14.67733333 87.72266667c0 0.56888889 0 1.25155555 0.56888889 1.82044444 0 3.072 0 9.78488889-0.56888889 18.88711112-13.99466667-20.13866667-39.59466667-34.13333333-68.26666667-34.13333334-44.48711111 0-79.75822222 31.63022222-79.75822222 70.08711111s35.95377778 70.08711111 79.75822222 70.08711111c15.24622222 0 29.80977778-3.64088889 41.984-10.35377778-27.42044445 46.30755555-83.51288889 79.75822222-195.584 37.20533334 0 0-41.41511111 164.52266667 56.09244445 182.72711111H362.95111111s32.31288889-92.04622222 99.89688889-107.86133333l1.82044445 69.40444444h92.6151111l1.82044445-69.40444444c67.01511111 15.81511111 99.89688889 107.86133333 99.89688889 107.86133333h50.51733333c97.50755555-18.31822222 56.09244445-182.72711111 56.09244445-182.72711111-112.75377778 42.66666667-168.16355555 9.10222222-195.584-37.20533334 12.17422222 6.71288889 26.85155555 10.35377778 41.984 10.35377778 44.48711111 0 79.75822222-31.63022222 79.75822222-70.08711111s-35.95377778-70.08711111-79.75822222-70.08711111c-29.24088889 0-54.272 13.42577778-68.26666667 34.13333334-0.56888889-9.10222222-0.56888889-15.81511111-0.56888889-18.88711112 0-0.56888889 0.56888889-1.25155555 0.56888889-1.82044444l15.81511111-88.29155556c34.13333333-12.74311111 78.62044445-21.95911111 108.43022222 3.64088889 33.56444445 27.98933333 54.84088889 69.40444445 77.36888889 105.35822223 6.144 9.78488889 12.17422222 19.456 19.456 28.672 4.89244445 6.71288889 10.92266667 15.24622222 18.88711111 18.8871111 9.78488889 4.89244445 23.09688889 1.82044445 33.56444445 1.82044445-22.528-27.53422222-43.23555555-57.344-60.30222223-88.40533333z" fill="#EFA69E" /><path d="M558.53511111 773.23377778h-94.43555556V616.67555555c0-25.03111111 20.13866667-45.056 45.056-45.056h4.20977778c25.03111111 0 45.056 20.13866667 45.056 45.056v156.55822223h0.11377778z" fill="#F9BFBB" /><path d="M482.41777778 850.60266667m-10.35377778 0a10.35377778 10.35377778 0 1 0 20.70755555 0 10.35377778 10.35377778 0 1 0-20.70755555 0Z" fill="#DD7685" /><path d="M482.41777778 850.60266667m-8.53333333 0a8.53333333 8.53333333 0 1 0 17.06666666 0 8.53333333 8.53333333 0 1 0-17.06666666 0Z" fill="#090B12" /><path d="M287.40266667 525.88088889m-30.49244445 0a30.49244445 30.49244445 0 1 0 60.98488889 0 30.49244445 30.49244445 0 1 0-60.98488889 0Z" fill="#C8544E" /><path d="M317.89511111 533.16266667m-9.78488889 0a9.78488889 9.78488889 0 1 0 19.56977778 0 9.78488889 9.78488889 0 1 0-19.56977778 0Z" fill="#F4BCB8" /><path d="M287.40266667 525.88088889m-25.6 0a25.6 25.6 0 1 0 51.2 0 25.6 25.6 0 1 0-51.2 0Z" fill="#090B12" /><path d="M542.03733333 850.60266667m-10.35377778 0a10.35377778 10.35377778 0 1 0 20.70755556 0 10.35377778 10.35377778 0 1 0-20.70755556 0Z" fill="#DD7685" /><path d="M542.03733333 850.60266667m-8.53333333 0a8.53333333 8.53333333 0 1 0 17.06666667 0 8.53333333 8.53333333 0 1 0-17.06666667 0Z" fill="#090B12" /><path d="M298.32533333 519.168m-6.71288888 0a6.71288889 6.71288889 0 1 0 13.42577777 0 6.71288889 6.71288889 0 1 0-13.42577777 0Z" fill="#FFFFFF" /><path d="M737.05244445 525.88088889m-30.49244445 0a30.49244445 30.49244445 0 1 0 60.98488889 0 30.49244445 30.49244445 0 1 0-60.98488889 0Z" fill="#C8544E" /><path d="M706.56 533.16266667m-9.78488889 0a9.78488889 9.78488889 0 1 0 19.56977778 0 9.78488889 9.78488889 0 1 0-19.56977778 0Z" fill="#F4BCB8" /><path d="M737.05244445 525.88088889m-25.6 0a25.6 25.6 0 1 0 51.2 0 25.6 25.6 0 1 0-51.2 0Z" fill="#090B12" /><path d="M749.79555555 519.168m-6.71288888 0a6.71288889 6.71288889 0 1 0 13.42577778 0 6.71288889 6.71288889 0 1 0-13.42577778 0Z" fill="#FFFFFF" /></svg>