<?xml version="1.0" standalone="no"?><!DOCTYPE svg PUBLIC "-//W3C//DTD SVG 1.1//EN" "http://www.w3.org/Graphics/SVG/1.1/DTD/svg11.dtd"><svg class="icon" width="200px" height="200.00px" viewBox="0 0 1024 1024" version="1.1" xmlns="http://www.w3.org/2000/svg"><path d="M2.27555555 511.88622222c0 281.48622222 227.89688889 509.38311111 509.38311112 509.38311111s509.38311111-227.89688889 509.38311111-509.38311111S793.14488889 2.50311111 511.65866667 2.50311111 2.27555555 230.4 2.27555555 511.88622222z" fill="#A3C897" /><path d="M39.48088889 703.82933333l2.38933333 2.38933334zM41.87022222 706.21866667l-2.38933333-2.38933334z" fill="#E27135" /><path d="M658.31822222 815.67288889c0 11.264-2.27555555 22.64177778-7.28177777 33.90577778-2.50311111-0.11377778-4.89244445-0.11377778-7.39555556-0.22755556-15.36 16.72533333-45.056 32.768-102.28622222 33.45066667-1.93422222 0.68266667-3.98222222 1.25155555-6.03022222 1.82044444-6.59911111 1.25155555-13.99466667-5.46133333-23.0968889-5.46133333s-17.06666667 6.71288889-23.77955555 4.89244444l-2.38933333-0.68266666c-59.27822222-0.45511111-89.65688889-16.95288889-105.35822222-34.01955556-1.82044445 0.11377778-3.64088889 0.11377778-5.46133334 0.22755556-5.34755555-11.71911111-7.50933333-23.66577778-7.28177778-35.38488889 39.59466667 26.624 86.47111111 51.76888889 146.31822222 51.76888889 58.70933333 0 104.90311111-24.23466667 144.04266667-50.28977778z" fill="#F2F2F3" /><path d="M807.70844445 806.22933333c-16.49777778 17.63555555-38.34311111 30.49244445-63.37422223 37.77422222-2.38933333 0.56888889-4.89244445 1.25155555-7.28177777 1.82044445-0.56888889 0-1.25155555 0-1.82044445 0.56888889-1.82044445 0.56888889-4.20977778 0.56888889-6.71288889 1.25155556h-1.25155556c-1.82044445 0-3.64088889 0.56888889-6.144 0.56888888-1.25155555 0-2.38933333 0-3.64088888 0.56888889-2.38933333 0-4.89244445 0.56888889-7.28177778 0.56888889-18.65955555 0.91022222-38.912 0.91022222-59.16444444 0.34133334 38.11555555-84.30933333-85.33333333-174.64888889-85.33333334-174.6488889 0 12.51555555-52.56533333 18.54577778-52.56533333 18.54577778s-52.56533333-6.03022222-52.56533333-18.54577778c0 0-123.44888889 90.22577778-85.33333334 174.6488889-21.39022222 0.68266667-42.89422222 0.79644445-62.23644444-0.22755556-11.60533333-0.56888889-23.09688889-2.38933333-34.13333334-5.46133334-12.51555555-3.41333333-24.23466667-8.41955555-34.92977778-14.7911111-10.69511111-6.37155555-20.25244445-14.22222222-28.44444444-22.98311112-29.24088889-31.63022222-65.19466667-83.51288889-63.94311111-144.95288888 0.56888889-17.06666667 3.98222222-34.70222222 11.264-52.7928889s18.31822222-36.52266667 34.47466667-55.06844444c2.38933333-3.072 4.89244445-5.46133333 7.28177778-8.53333333h1.59288888c22.98311111-27.98933333 43.46311111-57.57155555 60.416-88.51911111 37.20533333-68.49422222 103.53777778-171.008 165.31911112-171.008 6.94044445 0 13.76711111 1.25155555 20.48 4.096 15.81511111 6.71288889 32.88177778 10.35377778 50.51733333 11.60533333h17.63555555c8.53333333-0.56888889 17.18044445-1.82044445 25.71377778-3.75466667s16.95288889-4.55111111 24.80355556-7.85066666c66.33244445-27.42044445 143.81511111 90.79466667 185.79911111 166.912 17.06666667 31.06133333 38.11555555 60.98488889 60.64355555 88.51911111 2.38933333 3.072 4.89244445 5.46133333 7.28177778 8.53333333 33.45066667 37.77422222 45.62488889 74.41066667 46.76266667 107.86133334 1.93422222 61.55377778-34.58844445 113.32266667-63.82933333 144.95288888z" fill="#5A504E" /><path d="M821.47555555 589.14133333c-9.10222222 19.68355555-43.23555555 97.28-27.30666666 125.49688889C810.09777778 742.96888889 709.40444445 780.51555555 668.10311111 808.96c-3.18577778 2.27555555-6.48533333 4.43733333-9.78488889 6.59911111 0-72.93155555-92.61511111-140.62933333-92.61511111-140.74311111 0 12.51555555-52.56533333 18.54577778-52.56533333 18.54577778s-52.56533333-6.03022222-52.56533333-18.54577778c0 0-91.36355555 66.90133333-92.61511112 139.264-2.50311111-1.70666667-5.12-3.41333333-7.50933333-5.12-41.30133333-28.44444445-141.99466667-65.99111111-126.06577778-94.32177778 15.92888889-28.33066667-18.20444445-105.92711111-27.30666667-125.49688889S301.51111111 452.83555555 350.208 413.01333333c48.69688889-39.82222222 164.06755555 29.58222222 164.06755555 29.58222222s115.48444445-69.40444445 164.06755556-29.58222222C727.04 452.94933333 830.57777778 569.57155555 821.47555555 589.14133333z" fill="#F2F2F3" /><path d="M694.04444445 471.83644445c-14.44977778-17.408-62.23644445-63.71555555-92.50133334-40.96C571.16444445 453.632 514.27555555 459.66222222 514.27555555 459.66222222s-56.88888889-6.03022222-87.26755555-28.78577777c-30.37866667-22.75555555-78.16533333 23.552-92.50133333 40.96-14.44977778 17.408 129.59288889 133.57511111 129.59288888 133.5751111h100.352c0 0.11377778 144.04266667-116.05333333 129.5928889-133.5751111z" fill="#F9F8FC" /><path d="M449.76355555 693.47555555c0 16.384-11.60533333 24.91733333-27.98933333 24.91733334s-42.43911111-12.40177778-42.43911111-28.78577778 16.04266667-9.55733333 32.42666667-9.55733333 38.00177778-2.95822222 38.00177777 13.42577777zM578.78755555 693.47555555c0 16.384 11.60533333 24.91733333 27.98933334 24.91733334 16.384 0 42.43911111-12.40177778 42.43911111-28.78577778s-16.04266667-9.55733333-32.42666667-9.55733333-38.00177778-2.95822222-38.00177778 13.42577777z" fill="#8D6F53" /><path d="M442.25422222 579.24266667c-6.03022222 5.34755555-13.08444445 9.216-20.48 11.83288888-15.24622222 5.34755555-50.06222222 16.95288889-78.62044444 22.41422223-37.66044445 6.94044445-91.93244445 45.39733333-102.17244445 32.768-10.35377778-12.62933333-32.768-73.50044445 18.65955556-109.45422223 51.42755555-36.06755555 68.26666667-35.38488889 108.08888889-31.744 39.82222222 3.75466667 85.33333333 13.312 97.84888889-3.5271111 11.264-15.36 14.90488889 44.60088889-23.32444445 77.71022222z" fill="#3B3937" /><path d="M393.67111111 539.98933333m-22.64177778 0a22.64177778 22.64177778 0 1 0 45.28355556 0 22.64177778 22.64177778 0 1 0-45.28355556 0Z" fill="#595757" /><path d="M393.67111111 539.98933333m-18.31822222 0a18.31822222 18.31822222 0 1 0 36.63644444 0 18.31822222 18.31822222 0 1 0-36.63644444 0Z" fill="#221E1B" /><path d="M405.04888889 533.04888889m-9.10222222 0a9.10222222 9.10222222 0 1 0 18.20444444 0 9.10222222 9.10222222 0 1 0-18.20444444 0Z" fill="#FFFFFF" /><path d="M563.08622222 501.64622222c12.51555555 16.83911111 57.91288889 7.28177778 97.84888889 3.52711111 39.82222222-3.75466667 56.66133333-4.32355555 108.08888889 31.744 51.42755555 35.95377778 29.01333333 96.82488889 18.65955555 109.45422222-10.35377778 12.62933333-64.512-25.82755555-102.17244444-32.768-28.55822222-5.34755555-63.37422222-16.95288889-78.62044444-22.41422222-7.39555555-2.61688889-14.44977778-6.48533333-20.48-11.83288888-38.34311111-33.22311111-34.70222222-93.184-23.32444445-77.71022223z" fill="#3B3937" /><path d="M584.47644445 693.47555555L439.18222222 689.60711111l24.91733333-84.08177778c0-8.98844445 20.13866667-16.27022222 45.056-16.27022222h4.20977778c25.03111111 0 45.056 7.28177778 45.056 16.27022222l15.81511112 51.08622222 10.24 36.864z" fill="#C7D5ED" /><path d="M658.31822222 815.67288889c-39.13955555 26.05511111-85.33333333 50.28977778-144.04266667 50.28977778-59.84711111 0-106.72355555-25.14488889-146.31822222-51.76888889 1.25155555-72.36266667 92.61511111-139.264 92.61511112-139.264 0 12.51555555 52.56533333 18.54577778 52.56533333 18.54577777s52.56533333-6.03022222 52.56533333-18.54577777c0 0.11377778 92.72888889 67.81155555 92.61511111 140.74311111z" fill="#C2CEC4" /><path d="M569.11644445 683.46311111c-14.90488889-11.15022222-37.31911111-15.81511111-54.8408889-22.30044444v0c-17.52177778 6.59911111-39.82222222 11.15022222-54.84088888 22.30044444-10.58133333 7.96444445-47.90044445 34.47466667-41.30133334 51.08622222 6.25777778 15.92888889 11.94666667 53.47555555 96.14222222 53.47555556s89.88444445-37.54666667 96.14222223-53.47555556c6.48533333-16.61155555-30.72-43.12177778-41.30133333-51.08622222z" fill="#606060" /><path d="M565.70311111 675.04355555c0 12.51555555-52.56533333 18.54577778-52.56533333 18.54577778s-52.56533333-6.03022222-52.56533333-18.54577778c0-4.096 0.34133333-9.10222222 0.91022222-14.10844444 1.13777778-11.71911111 11.03644445-20.70755555 22.75555555-20.70755556h57.79911111c11.83288889 0 21.61777778 8.98844445 22.75555556 20.70755556 0.56888889 5.00622222 0.91022222 10.01244445 0.91022222 14.10844444z" fill="#090B12" /><path d="M487.19644445 674.92977778m-5.12 0a5.12 5.12 0 1 0 10.24 0 5.12 5.12 0 1 0-10.24 0Z" fill="#72747A" /><path d="M488.90311111 673.22311111m-5.12 0a5.12 5.12 0 1 0 10.24 0 5.12 5.12 0 1 0-10.24 0Z" fill="#202533" /><path d="M541.35466667 674.92977778m-5.12 0a5.12 5.12 0 1 0 10.24 0 5.12 5.12 0 1 0-10.24 0Z" fill="#72747A" /><path d="M539.648 673.22311111m-5.12 0a5.12 5.12 0 1 0 10.24 0 5.12 5.12 0 1 0-10.24 0Z" fill="#202533" /><path d="M514.27555555 709.17688889c-61.44 0-104.10666667-10.01244445-104.56177777-10.12622222-1.59288889-0.34133333-2.50311111-1.82044445-2.16177778-3.41333334 0.34133333-1.59288889 1.82044445-2.50311111 3.41333333-2.16177778 0.45511111 0.11377778 42.55288889 12.62933333 103.424 12.62933334 60.64355555 0 105.13066667-12.51555555 105.58577778-12.62933334 1.47911111-0.34133333 3.072 0.56888889 3.41333334 2.048s-0.56888889 3.072-2.048 3.41333334c-0.56888889 0.22755555-45.62488889 10.24-107.0648889 10.24z" fill="#72747A" /><path d="M514.27555555 706.33244445c-61.44 0-104.10666667-10.01244445-104.56177777-10.12622223-1.59288889-0.34133333-2.50311111-1.82044445-2.16177778-3.41333333 0.34133333-1.59288889 1.82044445-2.50311111 3.41333333-2.16177778 0.45511111 0.11377778 42.55288889 12.62933333 103.424 12.62933334 60.64355555 0 105.13066667-12.51555555 105.58577778-12.62933334 1.47911111-0.34133333 3.072 0.56888889 3.41333334 2.048s-0.56888889 3.072-2.048 3.41333334c-0.56888889 0.22755555-45.62488889 10.24-107.0648889 10.24z" fill="#181A1E" /><path d="M634.88 539.98933333m-22.64177778 0a22.64177778 22.64177778 0 1 0 45.28355556 0 22.64177778 22.64177778 0 1 0-45.28355556 0Z" fill="#595757" /><path d="M634.88 539.98933333m-18.31822222 0a18.31822222 18.31822222 0 1 0 36.63644444 0 18.31822222 18.31822222 0 1 0-36.63644444 0Z" fill="#221E1B" /><path d="M646.48533333 533.04888889m-9.10222222 0a9.10222222 9.10222222 0 1 0 18.20444444 0 9.10222222 9.10222222 0 1 0-18.20444444 0Z" fill="#FFFFFF" /></svg>