<?xml version="1.0" standalone="no"?><!DOCTYPE svg PUBLIC "-//W3C//DTD SVG 1.1//EN" "http://www.w3.org/Graphics/SVG/1.1/DTD/svg11.dtd"><svg class="icon" width="200px" height="200.00px" viewBox="0 0 1024 1024" version="1.1" xmlns="http://www.w3.org/2000/svg"><path d="M2.16177778 512.34133333c0 281.03111111 227.78311111 508.81422222 508.81422222 508.81422222s508.81422222-227.78311111 508.81422222-508.81422222S792.00711111 3.52711111 510.976 3.52711111 2.16177778 231.424 2.16177778 512.34133333z" fill="#D1DDE3" /><path d="M564.45155555 842.18311111c-1.25155555 0.11377778-2.16177778 1.024-2.16177777 2.16177778-12.85688889-1.25155555-24.00711111-2.38933333-32.42666667-3.41333334l-3.41333333-0.34133333c-1.82044445-0.22755555-3.52711111-0.34133333-5.34755556-0.45511111l-8.41955555-11.60533333c-0.34133333-0.45511111-0.68266667-0.56888889-0.79644445-0.56888889-0.22755555 0-0.56888889 0-0.91022222 0.34133333l-9.78488889 11.94666667c-1.82044445 0.11377778-3.64088889 0.22755555-5.46133333 0.45511111l-2.048 0.22755555c-8.53333333 1.024-19.56977778 2.16177778-32.42666667 3.41333334-0.11377778-1.13777778-0.91022222-2.048-2.16177778-2.16177778l0.11377778-0.11377778c3.072-2.73066667 51.2-46.76266667 52.56533334-58.93688888 1.36533333 12.17422222 49.49333333 56.20622222 52.56533333 58.93688888l0.11377777 0.11377778z" fill="#B8AC95" /><path d="M870.85511111 662.30044445v-0.11377778l-167.13955556-89.54311112-23.21066666-12.51555555s-6.48533333 65.87733333-53.70311111 96.36977778l-232.22044445-1.47911111c-45.16977778-31.06133333-51.54133333-94.89066667-51.54133333-94.89066667l-23.32444445 12.51555555v0.11377778L152.68977778 662.18666667v10.12622222c0 0.45511111 0 0.91022222 0.11377777 1.36533333 0 0.45511111 0 0.91022222 0.11377778 1.36533333 0 0.45511111 0 0.91022222 0.11377778 1.36533334 0 0.45511111 0.11377778 0.91022222 0.11377778 1.36533333 0 0.45511111 0.11377778 0.91022222 0.11377778 1.36533333 0 0.45511111 0.11377778 0.91022222 0.11377778 1.36533334 0 0.45511111 0.11377778 0.91022222 0.11377777 1.36533333 0 0.45511111 0.11377778 0.91022222 0.11377778 1.36533333 0 0.45511111 0.11377778 0.91022222 0.11377778 1.36533334 0 0.45511111 0.11377778 0.91022222 0.22755555 1.36533333 0.11377778 0.45511111 0.11377778 0.91022222 0.22755556 1.36533333 0.11377778 0.45511111 0.11377778 0.91022222 0.22755556 1.36533334 0.11377778 0.45511111 0.11377778 0.91022222 0.22755555 1.36533333 0.11377778 0.45511111 0.11377778 0.91022222 0.22755555 1.36533333 0.11377778 0.45511111 0.11377778 0.91022222 0.22755556 1.36533334 0.11377778 0.45511111 0.11377778 0.91022222 0.22755556 1.36533333 0.11377778 0.45511111 0.11377778 0.91022222 0.22755555 1.36533333 0.11377778 0.45511111 0.22755555 0.91022222 0.22755556 1.36533334 0.11377778 0.45511111 0.22755555 0.91022222 0.22755555 1.36533333l0.34133334 1.36533333 0.34133333 1.36533334 0.34133333 1.36533333 0.34133334 1.36533333 0.34133333 1.36533334 0.34133333 1.36533333 0.34133334 1.36533333c0.11377778 0.45511111 0.22755555 0.91022222 0.34133333 1.25155556 0.11377778 0.45511111 0.22755555 0.91022222 0.34133333 1.25155556 0.11377778 0.45511111 0.22755555 0.91022222 0.34133334 1.25155555 0.11377778 0.45511111 0.22755555 0.91022222 0.34133333 1.25155556 0.11377778 0.45511111 0.22755555 0.91022222 0.34133333 1.25155555 0.11377778 0.45511111 0.22755555 0.91022222 0.45511112 1.25155556 0.11377778 0.45511111 0.22755555 0.79644445 0.4551111 1.25155556 0.11377778 0.45511111 0.22755555 0.79644445 0.45511112 1.25155555 0.11377778 0.45511111 0.22755555 0.79644445 0.45511111 1.25155555 0.11377778 0.45511111 0.34133333 0.79644445 0.45511111 1.25155556 0.11377778 0.45511111 0.34133333 0.79644445 0.45511111 1.25155556 0.11377778 0.45511111 0.34133333 0.79644445 0.45511111 1.25155555 0.11377778 0.45511111 0.34133333 0.79644445 0.45511111 1.25155556 0.11377778 0.45511111 0.34133333 0.79644445 0.45511111 1.25155555 0.11377778 0.45511111 0.34133333 0.79644445 0.45511112 1.25155556 0.11377778 0.45511111 0.34133333 0.79644445 0.4551111 1.25155556 0.11377778 0.45511111 0.34133333 0.79644445 0.45511112 1.25155555 0.11377778 0.45511111 0.34133333 0.79644445 0.45511111 1.25155555 0.11377778 0.45511111 0.34133333 0.79644445 0.45511111 1.25155556 0.11377778 0.45511111 0.34133333 0.79644445 0.56888889 1.25155556 0.22755555 0.45511111 0.34133333 0.79644445 0.56888889 1.25155555 0.22755555 0.45511111 0.34133333 0.79644445 0.56888888 1.25155556 0.22755555 0.45511111 0.34133333 0.79644445 0.5688889 1.25155555 0.22755555 0.45511111 0.34133333 0.79644445 0.56888888 1.13777778 0.22755555 0.34133333 0.34133333 0.79644445 0.56888889 1.13777778 0.22755555 0.34133333 0.34133333 0.79644445 0.56888889 1.13777778 0.22755555 0.34133333 0.34133333 0.79644445 0.56888889 1.13777778 0.22755555 0.34133333 0.34133333 0.79644445 0.56888889 1.13777777 0.22755555 0.34133333 0.34133333 0.79644445 0.56888889 1.13777778 0.22755555 0.34133333 0.34133333 0.79644445 0.56888889 1.13777778 0.22755555 0.34133333 0.34133333 0.79644445 0.56888888 1.13777777 0.22755555 0.34133333 0.34133333 0.79644445 0.5688889 1.13777778 0.22755555 0.34133333 0.34133333 0.79644445 0.56888888 1.13777778 0.22755555 0.34133333 0.45511111 0.79644445 0.56888889 1.13777778 0.22755555 0.34133333 0.45511111 0.79644445 0.56888889 1.13777778 0.22755555 0.34133333 0.45511111 0.79644445 0.56888889 1.13777778 0.22755555 0.34133333 0.45511111 0.79644445 0.56888889 1.13777777 0.22755555 0.34133333 0.45511111 0.79644445 0.56888889 1.13777778 0.22755555 0.34133333 0.45511111 0.79644445 0.68266667 1.13777778 0.22755555 0.34133333 0.45511111 0.68266667 0.68266666 1.13777777 0.22755555 0.34133333 0.45511111 0.68266667 0.68266667 1.13777778 0.22755555 0.34133333 0.45511111 0.68266667 0.68266667 1.13777778 0.22755555 0.34133333 0.45511111 0.68266667 0.68266666 1.13777778 0.22755555 0.34133333 0.45511111 0.68266667 0.68266667 1.13777778l0.68266667 1.024 0.68266666 1.024 0.68266667 1.024 0.68266667 1.024 0.68266666 1.024 0.68266667 1.024 0.68266667 1.024 0.68266666 1.024 0.68266667 1.024 0.68266667 1.024 0.68266666 1.024 0.68266667 1.024 0.68266667 1.024 0.68266666 1.024 0.68266667 1.024 0.68266667 1.024 0.68266666 1.024 0.68266667 1.024c0.22755555 0.34133333 0.45511111 0.68266667 0.68266667 0.91022222 0.22755555 0.34133333 0.45511111 0.68266667 0.68266666 0.91022222 0.22755555 0.34133333 0.45511111 0.68266667 0.68266667 0.91022222 0.22755555 0.34133333 0.45511111 0.68266667 0.68266667 0.91022222 0.22755555 0.34133333 0.45511111 0.68266667 0.68266666 0.91022223 0.22755555 0.34133333 0.45511111 0.56888889 0.68266667 0.91022222 0.22755555 0.34133333 0.45511111 0.56888889 0.68266667 0.91022222 0.22755555 0.34133333 0.45511111 0.56888889 0.68266666 0.91022223 0.22755555 0.34133333 0.45511111 0.56888889 0.68266667 0.91022222 0.22755555 0.34133333 0.45511111 0.56888889 0.68266667 0.91022222 0.22755555 0.34133333 0.45511111 0.56888889 0.68266666 0.91022222 0.22755555 0.34133333 0.45511111 0.56888889 0.68266667 0.91022222 0.22755555 0.34133333 0.45511111 0.56888889 0.68266667 0.91022222 0.22755555 0.34133333 0.45511111 0.56888889 0.68266666 0.91022223 0.22755555 0.34133333 0.45511111 0.56888889 0.68266667 0.91022222 0.22755555 0.34133333 0.45511111 0.56888889 0.68266667 0.91022222 0.22755555 0.34133333 0.45511111 0.56888889 0.68266666 0.91022223 0.22755555 0.22755555 0.45511111 0.56888889 0.68266667 0.79644444 0.22755555 0.22755555 0.45511111 0.56888889 0.68266667 0.79644444 0.22755555 0.22755555 0.45511111 0.56888889 0.68266666 0.79644445 0.22755555 0.22755555 0.45511111 0.56888889 0.68266667 0.79644444 0.22755555 0.22755555 0.45511111 0.56888889 0.68266667 0.79644445 0.22755555 0.22755555 0.45511111 0.56888889 0.68266666 0.79644444 0.22755555 0.22755555 0.45511111 0.56888889 0.68266667 0.79644444 0.22755555 0.22755555 0.45511111 0.56888889 0.68266667 0.79644445 0.22755555 0.22755555 0.45511111 0.56888889 0.68266666 0.79644445 0.22755555 0.22755555 0.45511111 0.56888889 0.68266667 0.79644444 0.22755555 0.22755555 0.45511111 0.56888889 0.68266667 0.79644444 0.22755555 0.22755555 0.45511111 0.56888889 0.68266666 0.79644445 0.22755555 0.22755555 0.45511111 0.45511111 0.68266667 0.79644444 0.22755555 0.22755555 0.45511111 0.45511111 0.68266667 0.79644445 0.22755555 0.22755555 0.45511111 0.45511111 0.68266666 0.79644444 0.22755555 0.22755555 0.34133333 0.45511111 0.56888889 0.56888889 16.27022222 17.63555555 38.45688889 30.60622222 63.26044445 37.43288889h0.22755555c10.80888889 3.072 22.18666667 4.89244445 33.792 5.46133333 43.23555555 2.16177778 95.91466667-1.024 136.07822222-4.43733333 3.86844445-0.34133333 7.73688889-0.68266667 11.49155556-1.024-0.11377778-1.13777778-0.91022222-2.048-2.16177778-2.16177778l0.11377778-0.11377778c3.072-2.73066667 51.2-46.76266667 52.56533333-58.93688888 1.36533333 12.17422222 49.49333333 56.20622222 52.56533334 58.93688888l0.22755555 0.11377778c-1.25155555 0.11377778-2.16177778 1.024-2.16177778 2.16177778l11.49155556 1.024c40.04977778 3.41333333 92.72888889 6.59911111 135.96444444 4.43733333 38.34311111-1.93422222 73.95555555-17.52177778 97.28-43.008 29.24088889-31.40266667 65.64977778-83.39911111 64.05688889-144.49777777z" fill="#FAF3E2" /><path d="M445.32622222 330.06933333L240.18488889 155.07911111c-9.78488889-7.85066667-24.34844445-2.73066667-27.19288889 9.55733334-15.92888889 69.85955555-33.90577778 252.81422222 75.88977778 319.71555555l156.44444444-154.28266667zM732.72888889 484.352c109.90933333-66.90133333 91.81866667-249.74222222 75.88977778-319.71555555-2.73066667-12.17422222-17.29422222-17.29422222-27.19288889-9.55733334L576.39822222 330.06933333 732.72888889 484.352z" fill="#2E2418" /><path d="M445.32622222 323.584L244.39466667 163.49866667c-9.32977778-7.39555555-23.09688889-2.50311111-25.82755556 9.10222222-15.13244445 66.44622222-45.28355555 248.26311111 59.05066667 311.75111111l167.70844444-160.768z" fill="#DD6B1D" /><path d="M414.03733333 321.64977778L262.59911111 200.93155555c-5.91644445-4.66488889-14.67733333-1.70666667-16.384 5.6888889-10.92266667 46.87644445-35.72622222 186.368 43.34933334 234.38222222l124.47288888-119.35288889z" fill="#D1A255" /><path d="M520.98844445 840.13511111c-6.59911111-0.34133333-13.312-0.34133333-19.91111112 0.11377778L510.86222222 828.30222222c0.34133333-0.34133333 0.68266667-0.34133333 0.91022223-0.34133333s0.56888889 0.11377778 0.79644444 0.56888889l8.41955556 11.60533333z" fill="#391F23" /><path d="M573.78133333 845.36888889c40.16355555 3.41333333 92.84266667 6.59911111 136.07822222 4.43733333 11.60533333-0.56888889 22.98311111-2.38933333 33.792-5.46133333-99.66933333 7.39555555-143.24622222-19.34222222-145.18044444-20.59377778h-0.11377778c-1.47911111 3.41333333-3.52711111 6.82666667-6.03022222 9.89866667-4.77866667 5.68888889-11.03644445 9.78488889-18.54577778 11.71911111zM449.76355555 845.36888889c-40.16355555 3.41333333-92.84266667 6.59911111-136.07822222 4.43733333-11.60533333-0.56888889-22.98311111-2.38933333-33.792-5.46133333 99.66933333 7.39555555 143.24622222-19.34222222 145.18044445-20.59377778h0.11377777c1.47911111 3.41333333 3.52711111 6.82666667 6.03022223 9.89866667 4.77866667 5.68888889 10.92266667 9.78488889 18.54577777 11.71911111z" fill="#B8AC95" /><path d="M703.71555555 572.64355555c0 0.11377778 0 0.11377778 0 0-8.07822222 36.52266667-37.888 122.65244445-138.80888888 112.1848889-15.92888889-1.59288889-33.56444445-5.68888889-53.13422222-12.62933334-19.68355555 7.05422222-37.31911111 11.03644445-53.248 12.74311111-52.11022222 5.34755555-85.21955555-15.01866667-106.15466667-40.96-19.68355555-24.34844445-28.672-53.58933333-32.65422223-71.22488889v-0.11377778l23.32444445-12.51555555 95.45955555-51.2c22.98311111-12.06044445 48.128-18.09066667 73.2728889-18.09066667 25.14488889 0 50.28977778 6.03022222 73.27288888 18.09066667l95.45955556 51.2 23.21066666 12.51555555z" fill="#D66816" /><path d="M680.39111111 560.24177778s-15.36 154.51022222-168.73244444 99.78311111c-153.37244445 54.72711111-168.73244445-99.78311111-168.73244445-99.78311111l95.45955556-51.2c45.85244445-24.23466667 100.69333333-24.23466667 146.54577777 0l95.45955556 51.2z" fill="#FC8215" /><path d="M461.14133333 844.34488889c-3.75466667 0.34133333-7.50933333 0.68266667-11.49155555 1.024-7.50933333-1.93422222-13.76711111-5.91644445-18.65955556-11.83288889-2.50311111-3.072-4.55111111-6.37155555-6.03022222-9.89866667h-0.11377778c-1.25155555-2.95822222-2.27555555-5.91644445-3.072-8.87466666h4.89244445c1.59288889 5.68888889 4.096 11.15022222 7.96444444 15.81511111 5.80266667 7.05422222 14.10844445 11.03644445 24.34844444 11.60533333 1.25155555 0.11377778 2.16177778 0.91022222 2.16177778 2.16177778z" fill="#C6AC99" /><path d="M426.78044445 814.76266667h-4.89244445c-4.43733333-16.15644445-2.38933333-32.42666667-2.16177778-33.33688889 0.11377778-1.25155555 1.25155555-2.16177778 2.50311111-2.048 1.25155555 0.22755555 2.16177778 1.36533333 2.048 2.61688889-0.11377778 0.34133333-2.16177778 17.06666667 2.50311112 32.768z" fill="#766854" /><path d="M601.54311111 814.76266667c-1.82044445 6.59911111-4.66488889 13.19822222-9.216 18.77333333-4.77866667 5.80266667-11.03644445 9.89866667-18.54577778 11.83288889l-11.49155555-1.024c0-1.13777778 0.91022222-2.048 2.16177777-2.16177778 10.24-0.56888889 18.54577778-4.55111111 24.34844445-11.60533333 3.75466667-4.55111111 6.25777778-10.12622222 7.96444445-15.81511111h4.77866666z" fill="#C6AC99" /><path d="M601.54311111 814.76266667h-4.89244444c4.66488889-15.81511111 2.50311111-32.54044445 2.50311111-32.768-0.22755555-1.25155555 0.68266667-2.38933333 1.93422222-2.61688889 1.25155555-0.22755555 2.50311111 0.68266667 2.61688889 2.048 0.11377778 1.024 2.27555555 17.18044445-2.16177778 33.33688889z" fill="#766854" /><path d="M462.50666667 578.21866667m-25.37244445 0a25.37244445 25.37244445 0 1 0 50.74488889 0 25.37244445 25.37244445 0 1 0-50.74488889 0Z" fill="#E7C784" /><path d="M560.92444445 578.21866667m-25.37244445 0a25.37244445 25.37244445 0 1 0 50.74488889 0 25.37244445 25.37244445 0 1 0-50.74488889 0Z" fill="#E7C784" /><path d="M426.32533333 581.51822222c22.64177778 0 48.46933333 36.75022222 41.30133334 58.25422223-6.82666667 20.59377778-12.40177778 18.20444445-41.30133334 23.552-22.18666667 4.20977778-40.96-18.31822222-40.96-40.96s18.31822222-40.84622222 40.96-40.84622223zM636.35911111 622.47822222c0 22.64177778-18.65955555 45.056-40.96 40.96-28.89955555-5.46133333-34.47466667-3.072-41.30133333-23.552-7.168-21.504 18.65955555-58.25422222 41.30133333-58.25422222s40.96 18.20444445 40.96 40.84622222z" fill="#161406" /><path d="M426.32533333 622.47822222m-36.18133333 0a36.18133333 36.18133333 0 1 0 72.36266667 0 36.18133333 36.18133333 0 1 0-72.36266667 0Z" fill="#24A860" /><path d="M426.32533333 622.47822222m-25.37244444 0a25.37244445 25.37244445 0 1 0 50.74488889 0 25.37244445 25.37244445 0 1 0-50.74488889 0Z" fill="#079149" /><path d="M426.32533333 622.47822222m-22.18666666 0a22.18666667 22.18666667 0 1 0 44.37333333 0 22.18666667 22.18666667 0 1 0-44.37333333 0Z" fill="#42382C" /><path d="M445.44 605.184m-9.78488889 0a9.78488889 9.78488889 0 1 0 19.56977778 0 9.78488889 9.78488889 0 1 0-19.56977778 0Z" fill="#FFFFFF" /><path d="M595.39911111 622.47822222m-36.18133333 0a36.18133333 36.18133333 0 1 0 72.36266667 0 36.18133333 36.18133333 0 1 0-72.36266667 0Z" fill="#24A860" /><path d="M595.39911111 622.47822222m-25.37244444 0a25.37244445 25.37244445 0 1 0 50.74488888 0 25.37244445 25.37244445 0 1 0-50.74488888 0Z" fill="#079149" /><path d="M595.39911111 622.47822222m-22.18666666 0a22.18666667 22.18666667 0 1 0 44.37333333 0 22.18666667 22.18666667 0 1 0-44.37333333 0Z" fill="#42382C" /><path d="M354.19022222 357.376s-21.95911111-24.68977778-18.432-41.30133333c0 0-9.32977778 18.20444445 1.82044445 26.28266666 0 0-21.61777778-8.98844445-16.04266667-36.75022222 0 0-12.06044445 35.49866667 0.34133333 39.48088889 0 0-29.58222222-17.18044445-18.432-42.78044445 0 0-16.04266667 25.6-0.56888888 39.13955556 0 0-25.82755555-25.82755555-36.63644445-55.40977778-1.13777778-3.072-5.57511111-2.16177778-5.46133333 0.91022222 0.68266667 25.25866667 5.80266667 60.98488889 27.76177778 75.09333334 35.49866667 22.86933333 38.912 27.98933333 38.912 27.98933333l26.73777777-32.65422222z" fill="#593318" /><path d="M743.99288889 484.352c104.33422222-63.488 74.18311111-245.41866667 59.05066666-311.75111111-2.61688889-11.60533333-16.49777778-16.49777778-25.82755555-9.10222222L576.39822222 323.584l167.59466667 160.768z" fill="#DD6B1D" /><path d="M732.27377778 441.00266667c79.07555555-48.01422222 54.272-187.50577778 43.34933333-234.38222222-1.70666667-7.39555555-10.46755555-10.46755555-16.384-5.6888889L607.68711111 321.64977778l124.58666667 119.35288889z" fill="#D1A255" /><path d="M694.04444445 390.03022222s3.41333333-5.00622222 38.912-27.98933333c21.95911111-14.10844445 27.07911111-49.83466667 27.76177777-75.09333334 0.22755555-3.072-4.32355555-3.98222222-5.46133333-0.91022222-10.80888889 29.58222222-36.63644445 55.40977778-36.63644444 55.40977778 15.47377778-13.53955555-0.56888889-39.13955555-0.5688889-39.13955556 11.15022222 25.6-18.432 42.78044445-18.432 42.78044445 12.40177778-3.98222222 0.34133333-39.48088889 0.34133334-39.48088889 5.57511111 27.76177778-16.04266667 36.75022222-16.04266667 36.75022222 11.15022222-8.07822222 1.82044445-26.28266667 1.82044445-26.28266666 3.64088889 16.61155555-18.432 41.30133333-18.432 41.30133333l26.73777778 32.65422222z" fill="#593318" /><path d="M614.17244445 605.184m-9.7848889 0a9.78488889 9.78488889 0 1 0 19.56977778 0 9.78488889 9.78488889 0 1 0-19.56977778 0Z" fill="#FFFFFF" /><path d="M703.71555555 572.64355555c2.16177778-9.55733333 2.73066667-15.70133333 2.73066667-15.70133333L596.19555555 497.89155555c-52.90666667-27.98933333-116.28088889-27.98933333-169.18755555 0l-110.25066667 59.05066667s0.56888889 6.144 2.73066667 15.70133333v0.11377778l-68.03911111 36.40888889-98.75911111 53.02044445c0.91022222-33.792 13.312-70.42844445 45.16977777-107.86133334 26.16888889-30.72 49.37955555-63.14666667 68.1528889-97.39377778 41.75644445-76.23111111 119.12533333-194.10488889 185.7991111-166.912v0.11377778c37.66044445 15.36 81.69244445 15.36 119.3528889 0v-0.11377778c66.78755555-27.19288889 144.04266667 90.68088889 185.7991111 166.912 18.77333333 34.24711111 41.984 66.67377778 68.1528889 97.39377778 31.85777778 37.43288889 44.82844445 74.06933333 45.73866666 107.86133334l-167.13955556-89.54311112c0 0.11377778 0 0.11377778 0 0z" fill="#EA7513" /><path d="M511.77244445 385.59288889c-11.71911111 0-23.552-6.144-35.15733334-2.73066667C359.53777778 417.56444445 251.67644445 609.16622222 251.67644445 609.16622222l186.8231111-100.12444444c22.98311111-12.06044445 48.128-18.20444445 73.2728889-18.20444445s50.28977778 6.03022222 73.27288888 18.20444445l186.82311112 100.12444444s-107.74755555-191.37422222-224.71111112-226.19022222c-11.83288889-3.52711111-23.66577778 2.61688889-35.38488888 2.61688889zM598.35733333 774.48533333l-11.94666666 2.16177778h-0.11377778L558.87644445 699.73333333c-1.93422222-5.34755555-6.82666667-8.87466667-12.51555556-8.87466666h-69.17688889c-5.68888889 0-10.58133333 3.52711111-12.51555555 8.87466666l-27.53422223 76.8h-0.11377777l-11.94666667-2.16177778s4.89244445-12.74311111 11.49155555-30.37866666c6.48533333-17.408 14.90488889-39.59466667 21.95911112-59.16444444 1.82044445-4.77866667 3.41333333-9.32977778 5.00622222-13.65333334 1.93422222-5.34755555 3.64088889-10.12622222 5.00622222-14.44977778 12.74311111-37.31911111 43.23555555-39.13955555 43.23555556-39.13955555s30.37866667 1.82044445 43.23555555 39.13955555c1.47911111 4.32355555 3.18577778 9.216 5.00622222 14.44977778 1.47911111 4.32355555 3.18577778 8.87466667 4.89244445 13.65333334 14.336 39.48088889 33.45066667 89.65688889 33.45066666 89.65688888z" fill="#D66816" /><path d="M586.29688889 776.53333333l-28.33066667 5.12c-5.34755555 0.91022222-10.69511111-0.79644445-14.336-4.66488888-5.46133333-5.57511111-15.58755555-12.85688889-31.85777777-12.8568889s-26.39644445 7.28177778-31.85777778 12.8568889c-3.75466667 3.86844445-9.10222222 5.68888889-14.336 4.66488888l-28.33066667-5.12 27.53422222-76.8c1.93422222-5.23377778 6.82666667-8.76088889 12.51555556-8.76088888h69.17688889c5.68888889 0 10.58133333 3.52711111 12.51555555 8.76088888l27.30666667 76.8z" fill="#F48C3D" /><path d="M540.672 732.16h-57.79911111c-5.80266667 0-10.12622222 5.57511111-9.32977778 11.71911111 1.59288889 11.37777778 4.66488889 27.76177778 10.46755556 33.10933334 9.10222222 8.53333333 27.76177778 6.144 27.76177778 6.144s18.65955555 2.38933333 27.76177777-6.144c5.68888889-5.34755555 8.87466667-21.73155555 10.46755556-33.10933334 0.79644445-6.144-3.64088889-11.71911111-9.32977778-11.71911111z" fill="#2D052D" /><path d="M495.616 769.59288889c-0.56888889 0-1.024-0.34133333-1.13777778-0.91022222-0.11377778-0.68266667 0.34133333-1.25155555 0.91022223-1.36533334 3.64088889-0.68266667 3.75466667-3.86844445 3.5271111-8.76088888v-0.79644445c-0.11377778-2.73066667-5.80266667-3.75466667-7.73688888-3.98222222-0.68266667 0-1.13777778-0.56888889-1.024-1.25155556 0-0.68266667 0.68266667-1.13777778 1.25155555-1.024 1.024 0.11377778 9.67111111 0.91022222 9.89866667 6.144v0.79644445c0.22755555 4.20977778 0.45511111 10.01244445-5.34755556 11.15022222h-0.34133333zM527.81511111 769.59288889h-0.22755556c-5.91644445-1.13777778-5.57511111-6.82666667-5.34755555-11.15022222v-0.79644445c0.22755555-5.23377778 8.87466667-6.03022222 9.89866667-6.144 0.56888889-0.11377778 1.13777778 0.45511111 1.25155555 1.024 0 0.68266667-0.45511111 1.25155555-1.024 1.25155556-1.93422222 0.11377778-7.62311111 1.25155555-7.73688889 3.98222222v0.79644445c-0.22755555 4.77866667-0.11377778 8.07822222 3.52711112 8.76088888 0.68266667 0.11377778 1.024 0.68266667 0.91022222 1.36533334-0.22755555 0.56888889-0.68266667 0.91022222-1.25155556 0.91022222z" fill="#604E60" /><path d="M526.44977778 840.59022222c-1.82044445-0.22755555-3.52711111-0.34133333-5.34755556-0.45511111l-8.41955555-11.60533333c-0.34133333-0.45511111-0.68266667-0.56888889-0.79644445-0.56888889-0.22755555 0-0.56888889 0-0.91022222 0.34133333l-9.78488889 11.94666667c-1.82044445 0.11377778-3.64088889 0.22755555-5.46133333 0.45511111-0.11377778-0.56888889 0.11377778-1.13777778 0.56888889-1.70666667l11.15022222-13.53955555c1.13777778-1.36533333 2.84444445-2.27555555 4.66488889-2.16177778 1.82044445 0.11377778 3.41333333 1.024 4.55111111 2.50311111l9.44355556 13.08444444c0.11377778 0.56888889 0.34133333 1.13777778 0.34133333 1.70666667z" fill="#723C41" /><path d="M458.52444445 684.94222222c-7.05422222 19.56977778-15.36 41.75644445-21.95911112 59.16444445-75.88977778-6.48533333-83.51288889-82.26133333-84.30933333-100.12444445 20.93511111 25.94133333 54.15822222 46.30755555 106.26844445 40.96zM669.46844445 643.98222222c-0.79644445 17.86311111-8.41955555 93.63911111-84.30933334 100.12444445-6.59911111-17.408-14.90488889-39.59466667-21.95911111-59.16444445 52.11022222 5.34755555 85.33333333-15.01866667 106.26844445-40.96z" fill="#F48C3D" /><path d="M573.78133333 845.36888889s-4.89244445 41.30133333-62.00888888 41.30133333c-57.00266667 0-62.00888889-41.30133333-62.0088889-41.30133333 3.86844445-0.34133333 7.73688889-0.68266667 11.49155556-1.024 12.85688889-1.25155555 23.89333333-2.38933333 32.42666667-3.41333334l2.048-0.22755555c1.82044445-0.22755555 3.64088889-0.34133333 5.46133333-0.45511111 6.71288889-0.45511111 13.312-0.45511111 19.91111111-0.11377778 1.82044445 0.11377778 3.64088889 0.22755555 5.34755556 0.45511111l3.41333333 0.34133333c8.41955555 1.024 19.56977778 2.16177778 32.42666667 3.41333334l11.49155555 1.024z" fill="#EDE3CC" /></svg>