<?xml version="1.0" standalone="no"?><!DOCTYPE svg PUBLIC "-//W3C//DTD SVG 1.1//EN" "http://www.w3.org/Graphics/SVG/1.1/DTD/svg11.dtd"><svg class="icon" width="200px" height="200.00px" viewBox="0 0 1024 1024" version="1.1" xmlns="http://www.w3.org/2000/svg"><path d="M1022.06577778 504.37688889c-0.34133333-32.88177778-3.86844445-65.08088889-10.24-96.14222222-11.03644445-53.93066667-30.49244445-104.67555555-57.11644445-150.98311112-15.01866667-26.16888889-32.42666667-50.85866667-51.65511111-73.84177777-93.29777778-110.93333333-233.01688889-181.47555555-389.34755555-181.47555556-132.55111111 0-253.26933333 50.74488889-343.72266667 133.80266667-20.70755555 19.00088889-39.82222222 39.59466667-57.11644445 61.78133333-35.15733333 44.94222222-62.91911111 96.02844445-81.46488888 151.32444445-8.98844445 26.85155555-15.81511111 54.72711111-20.25244445 83.39911111-3.98222222 25.48622222-6.03022222 51.65511111-6.03022222 78.16533333 0 36.52266667 3.86844445 72.13511111 11.15022222 106.496 8.64711111 40.84622222 22.30044445 79.75822222 40.16355556 116.28088889 30.03733333 61.44 72.02133333 115.93955555 122.99377777 160.42666667 34.24711111 29.92355555 72.47644445 55.18222222 113.89155556 75.20711111 66.67377778 32.08533333 141.42577778 50.06222222 220.27377778 50.06222222 63.60177778 0 124.47288889-11.71911111 180.56533333-32.99555555 39.936-15.13244445 77.48266667-35.27111111 111.84355556-59.50577778 51.42755555-36.18133333 95.80088889-81.69244445 130.73066667-134.03022222 21.84533333-32.768 40.04977778-68.26666667 53.93066666-105.81333334 20.25244445-54.95466667 31.40266667-114.23288889 31.40266667-176.24177778v-5.91644444z" fill="#807DBA" /><path d="M265.67111111 234.04088889c-0.45511111 0-1.024-0.22755555-1.36533333-0.56888889l-25.48622223-31.06133333c-0.56888889-0.68266667-0.45511111-1.82044445 0.22755556-2.38933334 0.68266667-0.56888889 1.82044445-0.45511111 2.38933334 0.22755556l25.48622222 31.06133333c0.56888889 0.68266667 0.45511111 1.82044445-0.22755556 2.38933333-0.22755555 0.22755555-0.68266667 0.34133333-1.024 0.34133334zM269.65333333 233.13066667c-0.68266667 0-1.36533333-0.45511111-1.59288888-1.024l-19.56977778-48.58311112c-0.34133333-0.91022222 0.11377778-1.82044445 0.91022222-2.27555555 0.91022222-0.34133333 1.82044445 0.11377778 2.27555556 0.91022222l19.56977777 48.58311111c0.34133333 0.91022222-0.11377778 1.82044445-0.91022222 2.27555556-0.34133333 0.11377778-0.45511111 0.11377778-0.68266667 0.11377778z" fill="#070707" /><path d="M271.70133333 231.65155555c-1.024 0-1.70666667-0.79644445-1.70666666-1.70666666l0.91022222-36.18133334c0-0.91022222 0.79644445-1.70666667 1.70666666-1.70666666s1.70666667 0.79644445 1.70666667 1.70666666l-0.91022222 36.18133334c0 1.024-0.79644445 1.70666667-1.70666667 1.70666666zM763.10755555 234.04088889c0.45511111 0 1.024-0.22755555 1.36533334-0.56888889l25.48622222-31.06133333c0.56888889-0.68266667 0.45511111-1.82044445-0.22755556-2.38933334-0.68266667-0.56888889-1.82044445-0.45511111-2.38933333 0.22755556l-25.48622222 31.06133333c-0.56888889 0.68266667-0.45511111 1.82044445 0.22755555 2.38933333 0.22755555 0.22755555 0.68266667 0.34133333 1.024 0.34133334zM759.12533333 233.13066667c0.68266667 0 1.36533333-0.45511111 1.59288889-1.024l19.56977778-48.58311112c0.34133333-0.91022222-0.11377778-1.82044445-0.91022222-2.27555555-0.91022222-0.34133333-1.82044445 0.11377778-2.27555556 0.91022222l-19.56977777 48.58311111c-0.34133333 0.91022222 0.11377778 1.82044445 0.91022222 2.27555556 0.22755555 0.11377778 0.45511111 0.11377778 0.68266666 0.11377778z" fill="#070707" /><path d="M756.96355555 231.65155555c0.11377778 0 0.11377778 0 0 0 1.024 0 1.70666667-0.79644445 1.70666667-1.70666666l-0.91022222-36.18133334c0-0.91022222-0.79644445-1.70666667-1.70666667-1.70666666s-1.70666667 0.79644445-1.70666666 1.70666666l0.91022222 36.18133334c0.11377778 1.024 0.79644445 1.70666667 1.70666666 1.70666666z" fill="#070707" /><path d="M403.22844445 319.14666667l-113.77777778-90.68088889c-11.94666667-9.55733333-29.696-2.84444445-32.54044445 12.288-9.32977778 50.06222222-17.63555555 144.27022222 40.73244445 179.76888889l105.58577778-101.376z" fill="#5E4122" /><path d="M655.36 330.06933333l77.71022222-61.89511111c12.06044445-9.67111111 30.15111111-2.73066667 32.54044445 12.62933333 6.03022222 38.57066667 7.50933333 104.22044445-32.65422222 128.5688889L655.36 330.06933333z" fill="#F3D2BA" /><path d="M625.55022222 319.14666667l113.77777778-90.68088889c11.94666667-9.55733333 29.696-2.84444445 32.54044445 12.288 9.32977778 50.06222222 17.63555555 144.27022222-40.73244445 179.76888889l-105.58577778-101.376z" fill="#5E4122" /><path d="M315.84711111 284.44444445c-2.27555555 4.43733333-47.67288889 97.05244445-20.13866666 124.928-40.04977778-24.34844445-38.68444445-89.99822222-32.65422223-128.5688889 2.38933333-15.36 20.48-22.30044445 32.65422223-12.62933333l20.25244444 16.15644445-0.11377778 0.11377778z" fill="#473C39" /><path d="M337.80622222 366.47822222L295.82222222 409.37244445c-13.312-13.42577778-9.55733333-41.87022222-1.93422222-68.26666667-11.37777778 2.95822222-9.32977778-18.77333333-9.32977778-18.77333333 2.27555555 5.68888889 9.44355555 5.57511111 13.76711111 4.89244444l0.34133334-1.024c-10.69511111-3.41333333-8.53333333-34.47466667-5.46133334-24.00711111 3.41333333 11.37777778 12.97066667 4.096 12.97066667 4.096-5.34755555-14.56355555-3.072-25.03111111-3.072-25.03111111 8.30577778 7.62311111 12.85688889 3.072 12.85688889 3.072l26.51022222 21.04888888c-1.93422222 14.336-5.68888889 46.53511111-4.66488889 61.09866667z" fill="#2D2B2B" /><path d="M712.93155555 284.44444445c2.27555555 4.43733333 47.67288889 97.05244445 20.13866667 124.928 40.04977778-24.34844445 38.68444445-89.99822222 32.65422223-128.5688889-2.38933333-15.36-20.48-22.30044445-32.65422223-12.62933333l-20.25244444 16.15644445 0.11377777 0.11377778z" fill="#473C39" /><path d="M735.00444445 340.992c7.62311111 26.39644445 11.264 54.84088889-1.93422223 68.26666667L691.08622222 366.36444445c1.024-14.56355555-2.84444445-46.87644445-4.66488889-61.09866667l26.51022222-21.04888889s4.55111111 4.55111111 12.8568889-3.072c0 0 2.27555555 10.46755555-3.072 25.03111111 0 0 9.44355555 7.28177778 12.97066666-4.096 3.072-10.46755555 5.34755555 20.59377778-5.46133333 24.00711111l0.34133333 1.024c4.20977778 0.56888889 11.37777778 0.79644445 13.76711111-4.89244444 0 0 2.048 21.84533333-9.32977777 18.77333333z" fill="#2D2B2B" /><path d="M873.24444445 660.25244445l-2.16177778 2.16177777 0.11377778 0.11377778 2.048-2.27555555c1.59288889 61.21244445-34.816 113.09511111-63.71555556 144.49777777-16.27022222 17.74933333-38.45688889 30.60622222-63.37422222 37.43288889-2.38933333 0.68266667-4.89244445 1.36533333-7.39555556 1.93422222-0.68266667 0.11377778-1.36533333 0.34133333-2.048 0.45511112-2.16177778 0.45511111-4.20977778 0.79644445-6.48533333 1.25155555-0.45511111 0.11377778-0.79644445 0.11377778-1.25155556 0.22755555-1.93422222 0.34133333-3.86844445 0.56888889-5.91644444 0.79644445-1.13777778 0.22755555-2.38933333 0.34133333-3.52711111 0.45511111-2.38933333 0.22755555-4.77866667 0.45511111-7.28177778 0.56888889-35.27111111 1.82044445-76.68622222 0-112.52622222-2.50311111-3.52711111-0.34133333-6.94044445-0.56888889-10.35377778-0.79644444-4.096-0.34133333-8.07822222-0.68266667-11.83288889-1.024-0.45511111-0.11377778-0.79644445-0.11377778-1.25155555-0.11377778l-11.37777778-1.024c-12.85688889-1.25155555-24.00711111-2.38933333-32.42666667-3.41333334l-3.41333333-0.34133333c-1.70666667-0.22755555-3.52711111-0.34133333-5.34755556-0.45511111l-8.41955556-11.60533334c-0.34133333-0.45511111-0.68266667-0.56888889-0.79644444-0.56888888-0.22755555 0-0.56888889 0-0.91022222 0.34133333l-9.78488889 11.94666667c-1.82044445 0.11377778-3.64088889 0.22755555-5.46133333 0.45511111l-2.048 0.22755555c-8.53333333 1.024-19.56977778 2.16177778-32.42666667 3.41333334-3.75466667 0.34133333-7.50933333 0.68266667-11.37777778 1.024-0.45511111 0.11377778-0.79644445 0.11377778-1.25155555 0.11377778-3.86844445 0.34133333-7.73688889 0.68266667-11.83288889 1.024-3.52711111 0.22755555-7.168 0.56888889-10.80888889 0.79644444-35.72622222 2.61688889-77.02755555 4.32355555-112.18488889 2.50311111-11.60533333-0.56888889-22.98311111-2.38933333-33.792-5.46133333h-0.22755555c-24.80355555-6.82666667-46.99022222-19.79733333-63.14666667-37.43288889-28.89955555-31.40266667-65.30844445-83.28533333-63.71555556-144.384l2.16177778 2.048 0.11377778-0.11377778-2.27555556-2.048v-0.11377778c0.91022222-33.792 13.53955555-70.31466667 45.39733333-107.86133333l7.168-8.53333334c10.35377778-0.34133333 23.77955555 2.73066667 33.45066667-1.93422222 8.30577778-3.86844445 13.99466667-12.06044445 19.11466667-19.00088888 6.94044445-9.216 13.08444445-19.00088889 19.22844444-28.78577778 22.75555555-36.18133333 44.14577778-77.25511111 77.25511112-105.35822222 53.70311111-45.62488889 157.12711111 20.48 157.1271111 20.48s103.424-65.99111111 157.12711112-20.48c33.10933333 28.10311111 54.49955555 69.17688889 77.25511111 105.35822222 6.144 9.78488889 12.40177778 19.56977778 19.22844444 28.78577778 5.12 6.94044445 10.92266667 15.13244445 19.11466667 19.00088888 9.67111111 4.55111111 23.09688889 1.47911111 33.45066666 1.93422222l7.168 8.53333334c32.08533333 37.43288889 44.71466667 73.95555555 45.6248889 107.74755556z" fill="#D1A671" /><path d="M419.49866667 593.57866667c21.95911111 0 39.70844445 17.74933333 39.70844444 39.70844444s20.25244445 41.18755555-1.59288889 42.89422222c-74.18311111 5.68888889-81.80622222-33.67822222-81.80622222-55.63733333s21.73155555-26.96533333 43.69066667-26.96533333z" fill="#070707" /><path d="M512.91022222 736.256c-10.12622222 3.41333333-21.504 2.73066667-31.51644444-2.73066667-15.01866667-8.192-24.91733333-50.97244445-23.66577778-78.73422222 6.25777778-5.23377778 11.15022222-12.17422222 13.76711111-20.13866666l10.12622222 66.44622222c2.61688889 32.99555555 24.91733333 35.15733333 31.28888889 35.15733333z" fill="#5E4122" /><path d="M650.46755555 620.544c0 21.95911111-7.62311111 61.32622222-81.80622222 55.63733333-21.84533333-1.70666667-1.59288889-20.93511111-1.59288888-42.89422222s17.74933333-39.70844445 39.70844444-39.70844444c21.95911111 0 43.69066667 5.00622222 43.69066666 26.96533333z" fill="#070707" /><path d="M544.88177778 733.41155555c-10.01244445 5.46133333-21.504 6.144-31.51644445 2.73066667 0.79644445 0 1.25155555-0.11377778 1.25155556-0.11377777s29.92355555 3.52711111 32.99555556-35.04355556l10.12622222-66.44622222c2.16177778 6.59911111 5.80266667 12.51555555 10.58133333 17.29422222 2.048 27.648-7.96444445 73.15911111-23.43822222 81.57866666z" fill="#5E4122" /><path d="M577.536 843.32088889c-0.68266667 0.11377778-1.25155555 0.11377778-1.25155555 0.11377778h-0.11377778c-0.34133333 2.73066667-6.82666667 41.07377778-61.89511112 41.07377778-54.95466667 0-61.55377778-38.34311111-61.8951111-41.07377778h-0.11377778s-0.45511111 0-1.25155556-0.11377778c0.45511111-0.11377778 0.79644445-0.11377778 1.25155556-0.11377778 3.86844445-0.34133333 7.73688889-0.68266667 11.37777778-1.024 12.85688889-1.25155555 23.89333333-2.38933333 32.42666666-3.41333333l2.048-0.22755556c1.82044445-0.22755555 3.64088889-0.34133333 5.46133334-0.45511111l9.78488888-11.94666666c0.34133333-0.34133333 0.68266667-0.34133333 0.91022222-0.34133334s0.56888889 0.11377778 0.79644445 0.56888889l8.41955555 11.60533333c1.82044445 0.11377778 3.64088889 0.22755555 5.34755556 0.45511112l3.41333334 0.34133333c8.41955555 1.024 19.56977778 2.16177778 32.42666666 3.41333333l11.37777778 1.024c0.68266667 0.11377778 1.13777778 0.11377778 1.47911111 0.11377778z" fill="#C4B8B1" /><path d="M746.15466667 842.18311111c-2.38933333 0.68266667-4.89244445 1.36533333-7.39555556 1.93422222-0.68266667 0.11377778-1.36533333 0.34133333-2.048 0.45511112-2.16177778 0.45511111-4.20977778 0.79644445-6.48533333 1.25155555-0.45511111 0.11377778-0.79644445 0.11377778-1.25155556 0.22755555-1.93422222 0.34133333-3.86844445 0.56888889-5.91644444 0.79644445-1.13777778 0.22755555-2.38933333 0.34133333-3.52711111 0.45511111-2.38933333 0.22755555-4.77866667 0.45511111-7.28177778 0.56888889-35.27111111 1.82044445-76.68622222 0-112.52622222-2.50311111-3.52711111-0.22755555-6.94044445-0.56888889-10.35377778-0.79644444-4.096-0.34133333-8.07822222-0.68266667-11.83288889-1.024-0.45511111-0.11377778-0.79644445-0.11377778-1.25155555-0.11377778l-11.37777778-1.024c-12.85688889-1.25155555-24.00711111-2.38933333-32.42666667-3.41333334l-3.41333333-0.34133333c-1.70666667-0.22755555-3.52711111-0.34133333-5.34755556-0.45511111l-8.41955556-11.60533334c-0.34133333-0.45511111-0.68266667-0.56888889-0.79644444-0.56888888-0.22755555 0-0.56888889 0-0.91022222 0.34133333l-9.78488889 11.94666667c-1.82044445 0.11377778-3.64088889 0.22755555-5.46133333 0.45511111l-2.048 0.22755555c-8.53333333 1.024-19.56977778 2.16177778-32.42666667 3.41333334-3.75466667 0.34133333-7.50933333 0.68266667-11.37777778 1.024-0.45511111 0.11377778-0.79644445 0.11377778-1.25155555 0.11377778-3.86844445 0.34133333-7.73688889 0.68266667-11.83288889 1.024-3.52711111 0.22755555-7.168 0.56888889-10.80888889 0.79644444-35.72622222 2.61688889-77.02755555 4.32355555-112.18488889 2.50311111-11.60533333-0.56888889-22.98311111-2.38933333-33.792-5.46133333 57.45777778 4.20977778 96.256-2.84444445 119.23911111-9.89866667 15.58755555-4.77866667 28.44444445-15.58755555 36.18133334-29.92355555l54.61333333-101.376h43.57688889l54.61333333 101.376c7.73688889 14.336 20.59377778 25.14488889 36.18133333 29.92355555 22.86933333 6.82666667 61.66755555 13.99466667 119.12533334 9.67111111z" fill="#F1EBDB" /><path d="M644.66488889 620.544c0 24.576-19.91111111 44.60088889-44.60088889 44.60088889-12.40177778 0-23.66577778-5.00622222-31.744-13.19822222-4.77866667-4.77866667-8.41955555-10.69511111-10.58133333-17.29422222l-10.12622222 66.44622222c-3.072 38.57066667-32.99555555 35.04355555-32.99555556 35.04355555s-0.45511111 0-1.25155556 0.11377778h-0.34133333c-6.37155555 0.11377778-28.672-2.048-31.28888889-35.15733333l-10.12622222-66.44622222c-2.61688889 7.85066667-7.50933333 14.79111111-13.76711111 20.13866666-7.73688889 6.48533333-17.74933333 10.35377778-28.55822223 10.35377778-24.576 0-44.60088889-20.02488889-44.60088888-44.60088889s19.91111111-44.60088889 44.60088888-44.60088889c14.90488889 0 28.10311111 7.39555555 36.18133334 18.65955556v-0.11377778s31.97155555 16.15644445 49.152 16.15644444 49.152-16.15644445 49.152-16.15644444v0.11377778c8.07822222-11.264 21.27644445-18.65955555 36.18133333-18.65955556 24.46222222 0 44.71466667 20.02488889 44.71466667 44.60088889z" fill="#CF9F5C" /><path d="M523.71911111 838.08711111c-6.59911111-0.34133333-13.312-0.34133333-19.91111111 0.11377778l9.78488889-11.94666667c0.34133333-0.34133333 0.68266667-0.34133333 0.91022222-0.34133333s0.56888889 0.11377778 0.79644444 0.56888889l8.41955556 11.60533333z" fill="#1D1218" /><path d="M42.21155555 701.89511111l2.95822223 2.61688889-0.11377778 0.11377778zM873.24444445 660.25244445l-2.16177778 2.16177777zM871.08266667 662.41422222l2.16177778-2.16177777-2.16177778 2.16177777zM875.29244445 658.09066667l-2.048 2.16177778z" fill="#E27135" /><path d="M45.16977778 704.512l-0.11377778 0.11377778-2.84444445-2.73066667z" fill="#E27135" /><path d="M476.04622222 794.85155555m-3.41333333 0a3.41333333 3.41333333 0 1 0 6.82666666 0 3.41333333 3.41333333 0 1 0-6.82666666 0Z" fill="#868485" /><path d="M476.04622222 806.912m-3.41333333 0a3.41333333 3.41333333 0 1 0 6.82666666 0 3.41333333 3.41333333 0 1 0-6.82666666 0Z" fill="#868485" /><path d="M462.62044445 796.33066667m-3.41333334 0a3.41333333 3.41333333 0 1 0 6.82666667 0 3.41333333 3.41333333 0 1 0-6.82666667 0Z" fill="#868485" /><path d="M462.62044445 816.128m-3.41333334 0a3.41333333 3.41333333 0 1 0 6.82666667 0 3.41333333 3.41333333 0 1 0-6.82666667 0Z" fill="#92867A" /><path d="M449.37272547 810.49649607a3.41333333 3.41333333 0 1 0 6.47920072-2.1501952 3.41333333 3.41333333 0 1 0-6.47920072 2.1501952Z" fill="#92867A" /><path d="M442.54611683 800.82574336a3.41333333 3.41333333 0 1 0 6.47920072-2.1501952 3.41333333 3.41333333 0 1 0-6.47920072 2.1501952Z" fill="#92867A" /><path d="M553.18755555 794.85155555m-3.41333333 0a3.41333333 3.41333333 0 1 0 6.82666667 0 3.41333333 3.41333333 0 1 0-6.82666667 0Z" fill="#868485" /><path d="M553.18755555 806.912m-3.41333333 0a3.41333333 3.41333333 0 1 0 6.82666667 0 3.41333333 3.41333333 0 1 0-6.82666667 0Z" fill="#868485" /><path d="M566.72711111 796.33066667m-3.41333333 0a3.41333333 3.41333333 0 1 0 6.82666667 0 3.41333333 3.41333333 0 1 0-6.82666667 0Z" fill="#868485" /><path d="M566.72711111 816.128m-3.41333333 0a3.41333333 3.41333333 0 1 0 6.82666667 0 3.41333333 3.41333333 0 1 0-6.82666667 0Z" fill="#92867A" /><path d="M575.78246144 812.47864035a3.41333333 3.41333333 0 1 0 2.15042048-6.47912561 3.41333333 3.41333333 0 1 0-2.15042048 6.47912561Z" fill="#92867A" /><path d="M582.57377507 803.00266155a3.41333333 3.41333333 0 1 0 2.15042162-6.47912448 3.41333333 3.41333333 0 1 0-2.15042162 6.47912448Z" fill="#92867A" /><path d="M568.20622222 383.65866667c2.84444445 8.64711111 11.03644445 41.07377778 20.70755556 41.07377778 12.06044445 0 21.73155555-35.95377778 21.73155555-48.01422223 0-1.13777778-0.11377778-2.16177778-0.22755555-3.18577777-14.44977778 1.47911111-29.01333333 5.34755555-42.21155556 10.12622222z" fill="#070707" /><path d="M820.33777778 543.97155555c-10.35377778-0.34133333-23.77955555 2.73066667-33.45066667-1.93422222-8.30577778-3.86844445-13.99466667-12.06044445-19.11466666-19.00088888-6.94044445-9.216-13.08444445-19.00088889-19.22844445-28.78577778-22.75555555-36.18133333-44.14577778-77.25511111-77.25511111-105.35822222-29.58222222-25.14488889-74.06933333-16.384-108.20266667-3.41333334l-15.70133333 88.29155556c-2.27555555 13.08444445-13.65333333 22.64177778-27.07911111 22.64177778h-12.17422223c-13.42577778 0-24.80355555-9.55733333-27.0791111-22.64177778L465.35111111 385.47911111h-0.11377778c-14.44977778-5.46133333-30.83377778-10.24-47.104-11.83288889-22.07288889-2.38933333-44.14577778 0.91022222-61.09866666 15.36-33.10933333 28.10311111-54.49955555 69.17688889-77.25511112 105.35822223-6.144 9.78488889-12.40177778 19.56977778-19.22844444 28.78577777-5.12 6.94044445-10.92266667 15.13244445-19.11466666 19.00088889-9.67111111 4.55111111-23.09688889 1.47911111-33.45066667 1.93422222 23.21066667-28.10311111 43.91822222-57.68533333 60.87111111-88.74666666 41.75644445-76.23111111 119.01155555-193.99111111 185.68533333-166.79822222v0.11377777c16.04266667 6.59911111 33.33688889 10.35377778 50.74488889 11.264 5.91644445 0.34133333 11.83288889 0.34133333 17.74933334 0 17.408-1.024 34.70222222-4.66488889 50.74488888-11.264v-0.11377777c66.67377778-27.42044445 143.92888889 90.45333333 185.68533334 166.68444444 16.95288889 31.06133333 37.66044445 60.52977778 60.87111111 88.74666666z" fill="#CF9F5C" /><path d="M567.06844445 376.71822222c0 2.38933333 0.34133333 4.66488889 1.13777777 6.82666667 13.19822222-4.66488889 27.76177778-8.53333333 42.21155556-10.01244444-1.47911111-10.46755555-10.58133333-25.6-21.504-25.6-12.06044445 0.11377778-21.84533333 16.72533333-21.84533333 28.78577777z" fill="#0A0A0A" /><path d="M460.57244445 383.65866667c-2.84444445 8.64711111-11.03644445 41.07377778-20.70755556 41.07377778-12.06044445 0-21.73155555-35.95377778-21.73155556-48.01422223 0-1.13777778 0.11377778-2.16177778 0.22755556-3.18577777 14.44977778 1.47911111 29.01333333 5.34755555 42.21155556 10.12622222z" fill="#070707" /><path d="M461.71022222 376.71822222c0 2.38933333-0.34133333 4.66488889-1.13777777 6.82666667-13.19822222-4.66488889-27.76177778-8.53333333-42.21155556-10.01244444 1.47911111-10.46755555 10.58133333-25.6 21.504-25.6 12.06044445 0.11377778 21.84533333 16.72533333 21.84533333 28.78577777z" fill="#0A0A0A" /><path d="M542.49244445 710.99733333c-6.71288889-7.28177778-28.10311111 9.44355555-28.10311112 9.44355556s-21.39022222-16.83911111-28.10311111-9.44355556c-3.18577778 3.41333333-5.34755555 7.50933333-4.66488889 12.40177778 1.25155555 7.50933333 5.91644445 14.10844445 12.97066667 17.06666667 5.34755555 2.27555555 11.49155555 2.73066667 16.83911111 5.46133333 0.45511111 0.22755555 0.91022222 0.56888889 1.47911111 0.91022222l0.22755556 74.41066667c-1.25155555 0.34133333-2.27555555 1.024-3.072 2.048l-11.15022223 13.53955555c-0.45511111 0.56888889-0.68266667 1.13777778-0.56888888 1.70666667 1.82044445-0.22755555 3.64088889-0.34133333 5.46133333-0.45511111l9.78488889-11.94666666c0.34133333-0.34133333 0.68266667-0.34133333 0.91022222-0.34133334 0.11377778 0 0.45511111 0.11377778 0.79644444 0.56888889l8.41955556 11.60533333c1.82044445 0.11377778 3.64088889 0.22755555 5.34755556 0.45511112 0-0.56888889-0.11377778-1.13777778-0.34133334-1.70666667l-9.44355555-13.08444445c-0.79644445-1.13777778-1.93422222-1.82044445-3.18577778-2.27555555v-0.11377778l-0.22755555-74.41066667c0.56888889-0.45511111 1.024-0.79644445 1.4791111-1.024 5.12-2.84444445 11.37777778-3.29955555 16.83911112-5.46133333 7.05422222-2.95822222 11.71911111-9.67111111 12.97066666-17.06666667 0.68266667-4.77866667-1.47911111-8.87466667-4.66488888-12.288z" fill="#35322F" /><path d="M539.30666667 713.04533333c-5.91644445-6.48533333-24.91733333 8.41955555-24.91733334 8.41955556s-19.00088889-14.90488889-24.91733333-8.41955556c-2.84444445 3.072-4.77866667 6.71288889-4.096 11.03644445 1.13777778 6.71288889 5.23377778 12.51555555 11.49155555 15.13244444 4.77866667 2.048 10.24 2.38933333 14.9048889 4.89244445 0.91022222 0.45511111 2.61688889 1.59288889 2.61688888 2.84444444 0-1.25155555 1.70666667-2.27555555 2.61688889-2.84444444 4.55111111-2.50311111 10.12622222-2.95822222 14.90488889-4.89244445 6.25777778-2.61688889 10.35377778-8.53333333 11.49155556-15.13244444 0.68266667-4.32355555-1.25155555-7.96444445-4.096-11.03644445z" fill="#35322F" /><path d="M497.89043257 737.71104256a10.46755555 2.27555555 23.155 1 0 1.78958791-4.18449408 10.46755555 2.27555555 23.155 1 0-1.78958791 4.18449408Z" fill="#877E7D" /><path d="M497.67365063 738.14031587a9.216 1.93422222 23.155 1 0 1.52114859-3.55681962 9.216 1.93422222 23.155 1 0-1.52114859 3.55681962Z" fill="#1D1218" /><path d="M520.01282617 739.57434482a2.27555555 10.46755555 66.845 1 0 19.24867186-8.23210212 2.27555555 10.46755555 66.845 1 0-19.24867186 8.23210212Z" fill="#877E7D" /><path d="M521.61706667 739.87991438a1.93422222 9.216 66.845 1 0 16.9472-7.24782876 1.93422222 9.216 66.845 1 0-16.9472 7.24782876Z" fill="#1D1218" /><path d="M446.69155555 793.71377778l-124.47288888-1.36533333c-0.79644445 0-1.47911111-0.68266667-1.47911112-1.5928889 0-0.79644445 0.68266667-1.47911111 1.47911112-1.4791111l124.47288888 1.36533333c0.79644445 0 1.47911111 0.68266667 1.47911112 1.59288889 0 0.79644445-0.68266667 1.47911111-1.47911112 1.47911111zM316.30222222 814.64888889c-0.79644445 0-1.47911111-0.56888889-1.47911111-1.36533334-0.11377778-0.79644445 0.56888889-1.59288889 1.36533334-1.70666666l123.904-12.288c0.91022222-0.11377778 1.59288889 0.56888889 1.70666666 1.36533333s-0.56888889 1.59288889-1.36533333 1.70666667l-124.01777778 12.288h-0.11377778zM323.24266667 833.87733333c-0.68266667 0-1.36533333-0.45511111-1.47911112-1.25155555-0.11377778-0.79644445 0.34133333-1.59288889 1.25155556-1.82044445l122.42488889-22.64177778c0.79644445-0.11377778 1.59288889 0.34133333 1.82044445 1.25155556 0.11377778 0.79644445-0.34133333 1.59288889-1.25155556 1.82044444l-122.42488889 22.64177778h-0.34133333zM582.08711111 793.71377778c-0.79644445 0-1.47911111-0.68266667-1.47911111-1.47911111s0.68266667-1.47911111 1.47911111-1.59288889l124.47288889-1.36533333c0.79644445 0 1.47911111 0.68266667 1.47911111 1.4791111s-0.68266667 1.47911111-1.47911111 1.5928889l-124.47288889 1.36533333zM712.47644445 814.64888889l-124.01777778-12.288c-0.79644445-0.11377778-1.47911111-0.79644445-1.36533334-1.70666667 0.11377778-0.79644445 0.79644445-1.47911111 1.70666667-1.36533333l123.904 12.288c0.79644445 0.11377778 1.47911111 0.79644445 1.36533333 1.70666666-0.11377778 0.68266667-0.79644445 1.36533333-1.59288888 1.36533334zM705.536 833.87733333h-0.22755555L582.88355555 811.23555555c-0.79644445-0.11377778-1.36533333-0.91022222-1.25155555-1.82044444 0.11377778-0.79644445 0.91022222-1.36533333 1.82044445-1.25155556l122.42488888 22.64177778c0.79644445 0.11377778 1.36533333 0.91022222 1.25155556 1.82044445-0.22755555 0.79644445-0.91022222 1.25155555-1.59288889 1.25155555z" fill="#F7E8D0" /><path d="M465.23733333 556.71466667c13.312 0 24.12088889 14.56355555 24.12088889 21.27644444s-10.80888889 12.06044445-24.12088889 12.06044444-24.12088889-5.34755555-24.12088888-12.06044444c0-6.71288889 10.80888889-21.27644445 24.12088888-21.27644444zM563.54133333 556.71466667c13.312 0 24.12088889 14.56355555 24.12088889 21.27644444s-10.80888889 12.06044445-24.12088889 12.06044444-24.12088889-5.34755555-24.12088888-12.06044444c0-6.71288889 10.80888889-21.27644445 24.12088888-21.27644444z" fill="#070707" /><path d="M473.54311111 294.57066667s-22.98311111 34.01955555-32.42666666 27.648 10.58133333-35.15733333 10.58133333-35.15733334 19.79733333 6.71288889 21.84533333 7.50933334zM494.93333333 325.40444445s-4.20977778 40.84622222-15.47377778 39.70844444-7.28177778-35.95377778-7.28177777-35.95377778l22.75555555-3.75466666zM554.09777778 329.04533333s4.096 34.816-7.28177778 35.95377778S531.34222222 325.40444445 531.34222222 325.40444445l22.75555556 3.64088888zM555.23555555 294.57066667s22.98311111 34.01955555 32.42666667 27.648-10.58133333-35.15733333-10.58133333-35.15733334-19.79733333 6.71288889-21.84533334 7.50933334z" fill="#0A0A0A" /><path d="M514.38933333 341.10577778c-13.88088889 0-8.87466667-41.52888889-8.87466666-41.52888889 5.91644445 0.34133333 11.83288889 0.34133333 17.74933333 0 0 0 5.00622222 41.52888889-8.87466667 41.52888889zM514.38933333 410.73777778c-13.88088889 0-8.87466667-41.52888889-8.87466666-41.52888889 5.91644445 0.34133333 11.83288889 0.34133333 17.74933333 0 0 0.11377778 5.00622222 41.52888889-8.87466667 41.52888889z" fill="#040000" /><path d="M387.86844445 611.78311111c-0.91022222 2.048-1.36533333 4.32355555-1.13777778 7.168 1.13777778 16.72533333 14.56355555 28.33066667 29.80977778 32.65422222 33.22311111 9.32977778 47.78666667-1.82044445 59.392 6.25777778 1.47911111 1.024 3.52711111 0.45511111 4.20977777-1.25155556 6.59911111-17.29422222-2.38933333-36.63644445-19.91111111-42.78044444l-57.91288889-20.25244444-6.82666667 8.192c-3.072 3.64088889-6.03022222 6.37155555-7.6231111 10.01244444z" fill="#FEE298" /><path d="M432.81066667 586.52444445s-18.88711111-6.48533333-33.45066667 6.37155555c-14.67733333 12.74311111 6.82666667 36.97777778 6.82666667 36.97777778s63.14666667 3.75466667 67.24266666 12.51555555c4.20977778 8.76088889 15.01866667-0.68266667 8.76088889-8.98844444-6.37155555-8.30577778-30.94755555-48.128-49.37955555-46.87644444z"  /><path d="M455.45244445 613.14844445c0 1.25155555-0.11377778 2.27555555-0.22755556 3.5271111-13.53955555-10.92266667-35.95377778-15.58755555-49.152-17.408 4.66488889-7.62311111 13.19822222-12.62933333 22.75555556-12.62933333 14.79111111-0.11377778 26.624 11.83288889 26.624 26.51022223z" fill="#456963" /><path d="M455.33866667 616.67555555c-0.22755555 2.048-0.79644445 3.98222222-1.47911112 5.91644445-3.75466667 10.12622222-13.53955555 17.18044445-24.91733333 17.18044445-14.67733333 0-26.624-11.94666667-26.624-26.624 0-3.98222222 0.91022222-7.85066667 2.38933333-11.264l1.47911112-2.73066667c13.08444445 1.82044445 35.61244445 6.59911111 49.152 17.52177777z" fill="#84A79E" /><path d="M428.82844445 613.83111111m-12.288 0a12.288 12.288 0 1 0 24.576 0 12.288 12.288 0 1 0-24.576 0Z"  /><path d="M439.75111111 605.98044445m-5.34755556 0a5.34755555 5.34755555 0 1 0 10.69511112 0 5.34755555 5.34755555 0 1 0-10.69511112 0Z" fill="#FFFFFF" /><path d="M633.28711111 601.77066667l-6.82666666-8.192-57.9128889 20.25244444c-17.52177778 6.144-26.51022222 25.48622222-19.9111111 42.78044444 0.68266667 1.70666667 2.73066667 2.27555555 4.20977777 1.25155556 11.60533333-8.07822222 26.16888889 3.072 59.392-6.25777778 15.24622222-4.32355555 28.78577778-15.92888889 29.80977778-32.65422222 0.22755555-2.84444445-0.22755555-5.12-1.13777778-7.168-1.59288889-3.64088889-4.55111111-6.37155555-7.62311111-10.01244444z" fill="#FEE298" /><path d="M546.58844445 633.28711111c-6.37155555 8.30577778 4.55111111 17.74933333 8.76088888 8.98844444s67.24266667-12.51555555 67.24266667-12.51555555 21.504-24.23466667 6.82666667-36.97777778c-14.67733333-12.74311111-33.45066667-6.37155555-33.45066667-6.37155555-18.432-1.13777778-43.008 38.68444445-49.37955555 46.87644444z"  /><path d="M599.95022222 586.63822222c9.55733333 0 17.97688889 5.00622222 22.75555556 12.62933333-13.19822222 1.70666667-35.49866667 6.48533333-49.152 17.408-0.11377778-1.25155555-0.22755555-2.27555555-0.22755556-3.5271111-0.11377778-14.67733333 11.71911111-26.624 26.624-26.51022223z" fill="#456963" /><path d="M622.47822222 599.15377778l1.47911111 2.73066667c1.47911111 3.52711111 2.38933333 7.28177778 2.38933334 11.264 0 14.67733333-11.94666667 26.624-26.624 26.624-11.264 0-21.16266667-7.168-24.91733334-17.18044445-0.68266667-1.93422222-1.25155555-3.86844445-1.47911111-5.91644445 13.65333333-10.92266667 36.18133333-15.70133333 49.152-17.52177777z" fill="#84A79E" /><path d="M599.95022222 613.83111111m-12.288 0a12.288 12.288 0 1 0 24.576 0 12.288 12.288 0 1 0-24.576 0Z"  /><path d="M609.84888889 605.98044445m-5.34755556 0a5.34755555 5.34755555 0 1 0 10.69511112 0 5.34755555 5.34755555 0 1 0-10.69511112 0Z" fill="#FFFFFF" /><path d="M215.38133333 704.62577778s45.96622222 71.11111111 111.38844445 79.75822222c0 0-23.32444445 15.70133333-17.29422223 31.744 0 0-29.01333333 1.36533333-26.85155555-22.41422222s-12.62933333 16.83911111-32.31288889 13.19822222c0 0 11.37777778-15.01866667 4.55111111-26.39644445s-17.52177778-7.05422222-26.51022222 8.64711112c0 0-18.77333333-31.744-6.03022222-45.85244445 0 0-13.65333333-21.16266667-19.68355556-7.168-0.11377778 0.11377778-5.46133333-29.35466667 12.74311111-31.51644444zM813.39733333 704.62577778s-45.96622222 71.11111111-111.38844444 79.75822222c0 0 23.32444445 15.70133333 17.29422222 31.744 0 0 29.01333333 1.36533333 26.85155556-22.41422222s12.62933333 16.83911111 32.31288888 13.19822222c0 0-11.37777778-15.01866667-4.5511111-26.39644445s17.52177778-7.05422222 26.51022222 8.64711112c0 0 18.77333333-31.744 6.03022222-45.85244445 0 0 13.65333333-21.16266667 19.68355556-7.168 0.11377778 0.11377778 5.46133333-29.35466667-12.74311112-31.51644444z" fill="#B28757" /></svg>