<?xml version="1.0" standalone="no"?><!DOCTYPE svg PUBLIC "-//W3C//DTD SVG 1.1//EN" "http://www.w3.org/Graphics/SVG/1.1/DTD/svg11.dtd"><svg class="icon" width="200px" height="200.00px" viewBox="0 0 1024 1024" version="1.1" xmlns="http://www.w3.org/2000/svg"><path d="M2.16177778 512.34133333c0 281.03111111 227.78311111 508.81422222 508.81422222 508.81422222s508.81422222-227.78311111 508.81422222-508.81422222S792.00711111 3.52711111 510.976 3.52711111 2.16177778 231.424 2.16177778 512.34133333z" fill="#678AA5" /><path d="M417.67822222 311.86488889c0 58.93688889-47.78666667 106.72355555-106.72355555 106.72355556s-101.376-6.48533333-101.376-65.42222223 67.12888889-131.98222222 126.06577778-131.98222222 82.03377778 31.744 82.03377777 90.68088889z" fill="#ED8A48" /><path d="M390.71288889 313.91288889c0 43.69066667-35.38488889 78.96177778-78.96177778 78.96177778s-75.09333333-4.77866667-75.09333333-48.46933334 49.72088889-97.73511111 93.41155555-97.73511111 60.64355555 23.552 60.64355556 67.24266667z" fill="#F3D2BA" /><path d="M564.45155555 842.18311111c-1.25155555 0.11377778-2.16177778 1.024-2.16177777 2.16177778-12.85688889-1.25155555-24.00711111-2.38933333-32.42666667-3.41333334l-3.41333333-0.34133333c-1.82044445-0.22755555-3.52711111-0.34133333-5.34755556-0.45511111l-8.41955555-11.60533333c-0.34133333-0.45511111-0.68266667-0.56888889-0.79644445-0.56888889-0.22755555 0-0.56888889 0-0.91022222 0.34133333l-9.78488889 11.94666667c-1.82044445 0.11377778-3.64088889 0.22755555-5.46133333 0.45511111l-2.048 0.22755555c-8.53333333 1.024-19.56977778 2.16177778-32.42666667 3.41333334-0.11377778-1.13777778-0.91022222-2.048-2.16177778-2.16177778l0.11377778-0.11377778c3.072-2.73066667 51.2-46.76266667 52.56533334-58.93688888 1.36533333 12.17422222 49.49333333 56.20622222 52.56533333 58.93688888l0.11377777 0.11377778z" fill="#F2DCCE" /><path d="M357.94488889 336.896s-10.46755555-11.71911111-13.76711111-23.09688889c-0.56888889-1.93422222-3.41333333-1.59288889-3.64088889 0.45511111-0.11377778 1.25155555-0.11377778 2.50311111 0.11377778 3.75466667 0.22755555 1.82044445-2.048 2.84444445-3.18577778 1.47911111-2.048-2.38933333-4.096-5.57511111-5.23377778-9.67111111-0.45511111-1.93422222-3.29955555-1.70666667-3.64088889 0.22755556-1.25155555 7.50933333-1.25155555 15.58755555 3.75466667 17.18044444 0 0-13.65333333-7.85066667-16.15644444-20.59377778-0.34133333-1.93422222-3.18577778-1.93422222-3.6408889 0-1.25155555 6.03022222-0.79644445 12.85688889 4.77866667 17.74933334 0 0-20.36622222-20.36622222-28.89955555-43.80444445-0.91022222-2.38933333-4.43733333-1.70666667-4.32355556 0.68266667 0.56888889 19.91111111-12.74311111 67.35644445 4.66488889 78.39288888 28.10311111 18.09066667 30.83377778 22.07288889 30.83377778 22.0728889l38.34311111-44.82844445z" fill="#C89889" /><path d="M604.27377778 311.86488889c0 58.93688889 47.78666667 106.72355555 106.72355555 106.72355556s101.376-6.48533333 101.376-65.42222223-67.12888889-131.98222222-126.06577778-131.98222222c-58.93688889-0.11377778-82.03377778 31.744-82.03377777 90.68088889z" fill="#ED8A48" /><path d="M631.23911111 313.91288889c0 43.69066667 35.38488889 78.96177778 78.96177778 78.96177778 43.69066667 0 75.09333333-4.77866667 75.09333333-48.46933334s-49.72088889-97.73511111-93.41155555-97.73511111c-43.57688889 0-60.64355555 23.552-60.64355556 67.24266667z" fill="#F3D2BA" /><path d="M702.23644445 381.83822222s2.73066667-3.98222222 30.83377777-22.07288889c17.408-11.15022222 4.096-58.48177778 4.66488889-78.39288888 0.11377778-2.38933333-3.41333333-3.18577778-4.32355556-0.68266667-8.53333333 23.43822222-28.89955555 43.80444445-28.89955555 43.80444444 5.57511111-4.89244445 6.03022222-11.71911111 4.77866667-17.74933333-0.34133333-1.93422222-3.18577778-1.93422222-3.64088889 0-2.50311111 12.74311111-16.15644445 20.59377778-16.15644445 20.59377778 5.00622222-1.59288889 5.00622222-9.67111111 3.75466667-17.18044445-0.34133333-1.93422222-3.072-2.16177778-3.64088889-0.22755555-1.13777778 4.20977778-3.072 7.39555555-5.23377778 9.67111111-1.25155555 1.36533333-3.52711111 0.34133333-3.18577778-1.47911111 0.22755555-1.25155555 0.22755555-2.50311111 0.11377778-3.75466667-0.11377778-2.048-2.95822222-2.38933333-3.64088888-0.45511111-3.41333333 11.37777778-13.76711111 23.09688889-13.76711112 23.09688889l38.34311112 44.82844444z" fill="#C89889" /><path d="M521.10222222 840.13511111c-6.59911111-0.34133333-13.312-0.34133333-19.91111111 0.11377778l9.78488889-11.94666667c0.34133333-0.34133333 0.68266667-0.34133333 0.91022222-0.34133333s0.56888889 0.11377778 0.79644445 0.56888889l8.41955555 11.60533333z" fill="#E8C9B3" /><path d="M573.78133333 845.36888889c40.16355555 3.41333333 92.84266667 6.59911111 136.07822222 4.43733333 11.60533333-0.56888889 22.98311111-2.38933333 33.792-5.46133333-99.66933333 7.39555555-143.24622222-19.34222222-145.18044444-20.59377778h-0.11377778c-1.47911111 3.41333333-3.52711111 6.82666667-6.03022222 9.89866667-4.77866667 5.68888889-11.03644445 9.78488889-18.54577778 11.71911111zM449.76355555 845.36888889c-40.16355555 3.41333333-92.84266667 6.59911111-136.07822222 4.43733333-11.60533333-0.56888889-22.98311111-2.38933333-33.792-5.46133333 99.66933333 7.39555555 143.24622222-19.34222222 145.18044445-20.59377778h0.11377777c1.47911111 3.41333333 3.52711111 6.82666667 6.03022223 9.89866667 4.77866667 5.68888889 10.92266667 9.78488889 18.54577777 11.71911111z" fill="#F2DCCE" /><path d="M870.85511111 662.30044445l-2.048 2.16177777-0.11377778-0.11377777 2.16177778-2.048-167.13955556-89.6568889-23.21066666-12.51555555-95.45955556-51.2c-22.98311111-12.06044445-48.128-18.09066667-73.27288888-18.09066667s-50.28977778 6.03022222-73.2728889 18.09066667l-95.45955555 51.2-23.32444445 12.51555555v0.11377778L152.68977778 662.18666667v0.11377778l2.27555555 2.048-0.11377778 0.11377777-2.16177777-2.048c-1.59288889 61.21244445 34.816 113.09511111 63.71555555 144.49777778 16.27022222 17.63555555 38.45688889 30.60622222 63.26044445 37.43288889h0.22755555c10.80888889 3.072 22.18666667 4.89244445 33.792 5.46133333 43.23555555 2.16177778 95.91466667-1.024 136.07822222-4.43733333 3.86844445-0.34133333 7.73688889-0.68266667 11.49155556-1.024-0.11377778-1.13777778-0.91022222-2.048-2.16177778-2.16177778l0.11377778-0.11377778c3.072-2.73066667 51.2-46.76266667 52.56533334-58.93688888 1.36533333 12.17422222 49.49333333 56.20622222 52.56533333 58.93688888l0.22755555 0.11377778c-1.25155555 0.11377778-2.16177778 1.024-2.16177778 2.16177778l11.49155556 1.024c40.04977778 3.41333333 92.72888889 6.59911111 135.96444444 4.43733333 38.34311111-1.93422222 73.95555555-17.52177778 97.28-43.008 28.89955555-31.40266667 65.30844445-83.39911111 63.71555556-144.49777777z" fill="#FFEDE1" /><path d="M870.74133333 662.30044445l-2.048 2.048h-0.11377778z" fill="#E27135" /><path d="M868.57955555 664.34844445l2.16177778-2.048-2.048 2.048zM872.90311111 660.02488889l-2.16177778 2.27555556v-0.11377778z" fill="#E27135" /><path d="M703.71555555 572.64355555c2.16177778-9.55733333 2.73066667-15.70133333 2.73066667-15.70133333L596.19555555 497.89155555c-52.90666667-27.98933333-116.28088889-27.98933333-169.18755555 0l-110.25066667 59.05066667s0.56888889 6.144 2.73066667 15.70133333v0.11377778l-67.69777778 36.18133334-0.34133333 0.22755555-98.98666667 53.02044445c0.91022222-33.792 13.53955555-70.42844445 45.39733333-107.86133334 26.16888889-30.72 49.37955555-63.14666667 68.1528889-97.39377778 41.75644445-76.23111111 119.12533333-194.10488889 185.7991111-166.912v0.11377778c37.66044445 15.36 81.69244445 15.36 119.3528889 0v-0.11377778c66.78755555-27.19288889 144.04266667 90.68088889 185.7991111 166.912 18.77333333 34.24711111 41.984 66.67377778 68.1528889 97.39377778 31.85777778 37.43288889 44.48711111 74.06933333 45.39733333 107.86133334l-166.79822223-89.54311112z" fill="#ED8A48" /><path d="M706.44622222 556.94222222s-0.56888889 6.144-2.73066667 15.70133333l-118.67022222-63.60177777c-22.98311111-12.17422222-48.128-18.20444445-73.27288888-18.20444445s-50.28977778 6.144-73.2728889 18.20444445l-186.8231111 100.12444444s0-0.11377778 0.11377777-0.22755555l67.69777778-36.18133334v-0.11377778c-2.16177778-9.55733333-2.73066667-15.70133333-2.73066667-15.70133333l110.25066667-59.05066667c52.90666667-27.98933333 116.28088889-27.98933333 169.18755555 0l110.25066667 59.05066667z" fill="#E2752B" /><path d="M703.71555555 572.64355555c2.16177778-9.55733333 2.73066667-15.70133333 2.73066667-15.70133333L596.19555555 497.89155555c-52.90666667-27.98933333-116.28088889-27.98933333-169.18755555 0l-110.25066667 59.05066667s0.56888889 6.144 2.73066667 15.70133333v0.11377778l-67.69777778 36.18133334c3.75466667-6.59911111 109.79555555-192.05688889 224.82488889-226.07644445 11.60533333-3.41333333 23.43822222 2.73066667 35.15733334 2.73066667s23.552-6.144 35.38488888-2.61688889c116.96355555 34.816 224.71111111 226.19022222 224.71111112 226.19022222l-68.1528889-36.52266667z" fill="#EF8637" /><path d="M529.63555555 584.13511111h-35.72622222c-3.64088889 0-6.25777778 3.41333333-5.80266666 7.28177778 1.024 7.05422222 2.84444445 17.18044445 6.48533333 20.48 4.32355555 4.096 12.17422222 4.096 15.58755555 3.98222222 1.13777778-0.11377778 2.16177778-0.11377778 3.18577778 0 3.41333333 0.22755555 11.264 0.11377778 15.58755556-3.98222222 3.52711111-3.29955555 5.46133333-13.42577778 6.48533333-20.48 0.45511111-3.86844445-2.27555555-7.28177778-5.80266667-7.28177778z" fill="#766854" /><path d="M501.76 607.34577778c-0.34133333 0-0.68266667-0.22755555-0.68266667-0.56888889-0.11377778-0.45511111 0.22755555-0.79644445 0.56888889-0.79644444 2.27555555-0.45511111 2.27555555-2.38933333 2.16177778-5.46133334v-0.45511111c-0.11377778-1.70666667-3.64088889-2.27555555-4.77866667-2.50311111-0.45511111 0-0.68266667-0.34133333-0.68266666-0.79644444s0.45511111-0.68266667 0.79644444-0.68266667c0.68266667 0.11377778 6.03022222 0.56888889 6.144 3.75466667v0.4551111c0.11377778 2.61688889 0.22755555 6.25777778-3.29955556 6.94044445-0.11377778 0.11377778-0.11377778 0.11377778-0.22755555 0.11377778zM521.67111111 607.34577778c-0.11377778 0-0.11377778 0 0 0-3.75466667-0.68266667-3.52711111-4.20977778-3.41333333-6.94044445v-0.45511111c0.11377778-3.18577778 5.46133333-3.75466667 6.144-3.75466667 0.34133333-0.11377778 0.68266667 0.22755555 0.79644444 0.68266667 0 0.45511111-0.22755555 0.79644445-0.68266667 0.79644445-1.25155555 0.11377778-4.77866667 0.79644445-4.77866666 2.50311111v0.45511111c-0.11377778 2.95822222-0.11377778 5.00622222 2.16177778 5.46133333 0.45511111 0.11377778 0.68266667 0.45511111 0.56888888 0.79644445-0.11377778 0.22755555-0.45511111 0.45511111-0.79644444 0.45511111z" fill="#9B8F81" /><path d="M526.44977778 840.59022222c-1.82044445-0.22755555-3.52711111-0.34133333-5.34755556-0.45511111l-8.41955555-11.60533333c-0.34133333-0.45511111-0.68266667-0.56888889-0.79644445-0.56888889-0.22755555 0-0.56888889 0-0.91022222 0.34133333l-9.78488889 11.94666667c-1.82044445 0.11377778-3.64088889 0.22755555-5.46133333 0.45511111-0.11377778-0.56888889 0.11377778-1.13777778 0.56888889-1.70666667l11.15022222-13.53955555c1.13777778-1.36533333 2.84444445-2.27555555 4.66488889-2.16177778 1.82044445 0.11377778 3.41333333 1.024 4.55111111 2.50311111l9.44355556 13.08444444c0.11377778 0.56888889 0.34133333 1.13777778 0.34133333 1.70666667z" fill="#E8C9B3" /><path d="M343.04 442.93688889m-25.37244445 0a25.37244445 25.37244445 0 1 0 50.7448889 0 25.37244445 25.37244445 0 1 0-50.7448889 0Z" fill="#D16319" /><path d="M678.912 442.93688889m-25.37244445 0a25.37244445 25.37244445 0 1 0 50.7448889 0 25.37244445 25.37244445 0 1 0-50.7448889 0Z" fill="#D16319" /><path d="M335.64444445 502.67022222m-49.49333334 0a49.49333333 49.49333333 0 1 0 98.98666667 0 49.49333333 49.49333333 0 1 0-98.98666667 0Z" fill="#766854" /><path d="M305.26577778 664.34844445m-49.49333333 0a49.49333333 49.49333333 0 1 0 98.98666666 0 49.49333333 49.49333333 0 1 0-98.98666666 0Z" fill="#FFC7C7" /><path d="M718.27911111 664.34844445m-49.49333333 0a49.49333333 49.49333333 0 1 0 98.98666667 0 49.49333333 49.49333333 0 1 0-98.98666667 0Z" fill="#FFC7C7" /><path d="M335.64444445 502.67022222m-30.37866667 0a30.37866667 30.37866667 0 1 0 60.75733333 0 30.37866667 30.37866667 0 1 0-60.75733333 0Z" fill="#42382C" /><path d="M361.81333333 479.00444445m-13.42577778 0a13.42577778 13.42577778 0 1 0 26.85155556 0 13.42577778 13.42577778 0 1 0-26.85155556 0Z" fill="#FFFFFF" /><path d="M687.90044445 502.67022222m-49.49333334 0a49.49333333 49.49333333 0 1 0 98.98666667 0 49.49333333 49.49333333 0 1 0-98.98666667 0Z" fill="#766854" /><path d="M687.90044445 502.67022222m-30.37866667 0a30.37866667 30.37866667 0 1 0 60.75733333 0 30.37866667 30.37866667 0 1 0-60.75733333 0Z" fill="#42382C" /><path d="M712.93155555 479.00444445m-13.42577777 0a13.42577778 13.42577778 0 1 0 26.85155555 0 13.42577778 13.42577778 0 1 0-26.85155555 0Z" fill="#FFFFFF" /><path d="M577.19466667 676.18133333c-1.47911111-0.56888889-3.072 0.91022222-3.41333334 3.072-2.73066667 17.18044445-14.90488889 26.624-25.37244444 29.696-11.94666667 3.52711111-27.30666667 0.56888889-34.58844444-13.88088888 0-0.11377778-0.11377778-0.11377778-0.11377778-0.11377778-0.11377778-0.11377778-0.11377778-0.22755555-0.22755556-0.34133334-0.11377778-0.11377778-0.11377778-0.22755555-0.22755556-0.34133333l-0.11377777-0.11377778s-0.11377778 0-0.11377778-0.11377777c-0.11377778-0.11377778-0.22755555-0.11377778-0.22755555-0.22755556-0.11377778-0.11377778-0.11377778-0.11377778-0.22755556-0.11377778s-0.22755555-0.11377778-0.22755556-0.11377778c-0.11377778 0-0.22755555-0.11377778-0.22755555-0.11377778H511.08977778c-0.11377778 0-0.22755555 0.11377778-0.22755556 0.11377778-0.11377778 0-0.22755555 0.11377778-0.22755555 0.11377778-0.11377778 0-0.11377778 0.11377778-0.22755556 0.11377778-0.11377778 0.11377778-0.22755555 0.11377778-0.22755556 0.22755556 0 0-0.11377778 0-0.11377777 0.11377777l-0.11377778 0.11377778c-0.11377778 0.11377778-0.11377778 0.22755555-0.22755555 0.34133333s-0.11377778 0.22755555-0.22755556 0.34133334l-0.11377778 0.11377778c-7.28177778 14.56355555-22.528 17.52177778-34.58844444 13.88088888-10.46755555-3.072-22.64177778-12.51555555-25.37244445-29.696-0.34133333-2.27555555-1.93422222-3.64088889-3.41333333-3.072s-2.50311111 2.73066667-2.16177778 5.00622222c2.84444445 17.63555555 14.22222222 31.40266667 29.80977778 35.95377778 3.29955555 1.024 6.82666667 1.47911111 10.35377778 1.47911112 10.12622222 0 20.70755555-4.32355555 27.648-14.67733334 6.94044445 10.46755555 17.52177778 14.67733333 27.648 14.67733334 3.52711111 0 7.05422222-0.56888889 10.35377778-1.47911112 15.58755555-4.55111111 26.96533333-18.31822222 29.80977777-35.95377778 0.11377778-2.27555555-0.79644445-4.43733333-2.27555555-5.00622222z" fill="#766854" /></svg>