<?xml version="1.0" standalone="no"?><!DOCTYPE svg PUBLIC "-//W3C//DTD SVG 1.1//EN" "http://www.w3.org/Graphics/SVG/1.1/DTD/svg11.dtd"><svg class="icon" width="200px" height="200.00px" viewBox="0 0 1024 1024" version="1.1" xmlns="http://www.w3.org/2000/svg"><path d="M2.27555555 511.88622222c0 281.48622222 227.89688889 509.38311111 509.38311112 509.38311111s509.38311111-227.89688889 509.38311111-509.38311111S793.14488889 2.50311111 511.65866667 2.50311111 2.27555555 230.4 2.27555555 511.88622222z" fill="#BAE6E8" /><path d="M285.92355555 249.96977778c-29.80977778 17.408-57.45777778 39.13955555-79.3031111 66.10488889-11.03644445 13.53955555-20.48 28.44444445-27.98933334 44.25955555-3.86844445 8.07822222-7.168 16.49777778-10.01244444 25.03111111-2.048 6.25777778-3.18577778 15.36-1.93422222 21.61777778 3.86844445-4.77866667 7.05422222-9.89866667 11.37777777-14.336 3.29955555-3.41333333 7.73688889-7.73688889 12.40177778-8.98844444 8.07822222-2.27555555 5.68888889 4.89244445 2.73066667 10.12622222-8.30577778 14.79111111-12.74311111 30.72-6.82666667 47.33155556 4.66488889-12.62933333 8.64711111-26.73777778 15.01866667-38.57066667 15.47377778 5.68888889 4.096 38.22933333 5.23377778 49.49333333 0.45511111 3.75466667 1.93422222 9.44355555 6.25777777 10.24-1.25155555-9.216 4.77866667-24.80355555 8.64711111-33.33688889 24.34844445 26.16888889 55.52355555 40.16355555 55.52355556 40.16355556s144.49777778-172.25955555 144.72533333-172.48711111c2.27555555-2.61688889-14.336-25.03111111-15.92888889-27.07911112-12.40177778-16.49777778-28.89955555-30.72-49.26577778-35.84-25.6-6.37155555-49.152 3.64088889-70.656 16.27022223z" fill="#9FA09D" /><path d="M375.12533333 310.61333333c-6.82666667-8.98844445-15.81511111-16.83911111-26.96533333-19.56977778-3.98222222-1.024-7.85066667-1.25155555-11.71911111-0.91022222-0.34133333 0-0.56888889 0-0.91022222 0.11377778-9.216 0.91022222-17.86311111 5.00622222-26.05511112 9.78488889-16.384 9.55733333-31.51644445 21.504-43.4631111 36.18133333-6.03022222 7.39555555-11.264 15.58755555-15.36 24.23466667-2.16177778 4.43733333-3.98222222 8.98844445-5.46133334 13.65333333-1.13777778 3.41333333-1.82044445 8.41955555-1.024 11.83288889 2.048-2.61688889 3.86844445-5.46133333 6.25777778-7.85066667 1.82044445-1.82044445 4.20977778-4.20977778 6.82666666-4.89244444 4.43733333-1.25155555 3.072 2.61688889 1.47911112 5.57511111-4.55111111 8.07822222-6.94044445 16.83911111-3.75466667 25.94133333 2.61688889-6.94044445 4.77866667-14.67733333 8.30577778-21.16266666 8.41955555 3.072 2.27555555 20.93511111 2.84444444 27.07911111 0.22755555 2.048 1.024 5.12 3.41333333 5.57511111-0.68266667-5.12 2.61688889-13.65333333 4.6648889-18.31822222 13.312 14.336 30.49244445 21.95911111 30.49244444 21.95911111s11.03644445-13.08444445 24.80355556-29.58222222c1.13777778-1.36533333 2.27555555-2.61688889 3.41333333-4.096 22.75555555-27.19288889 51.08622222-60.87111111 51.08622222-60.87111111 1.13777778-1.25155555-8.07822222-13.53955555-8.87466667-14.67733334z" fill="#F7F7F7" /><path d="M738.07644445 249.96977778c29.80977778 17.408 57.45777778 39.13955555 79.3031111 66.10488889 11.03644445 13.53955555 20.48 28.44444445 27.98933334 44.25955555 3.86844445 8.07822222 7.168 16.49777778 10.01244444 25.03111111 2.048 6.25777778 3.18577778 15.36 1.93422222 21.61777778-3.86844445-4.77866667-7.05422222-9.89866667-11.37777777-14.336-3.29955555-3.41333333-7.73688889-7.73688889-12.40177778-8.98844444-8.07822222-2.27555555-5.68888889 4.89244445-2.73066667 10.12622222 8.30577778 14.79111111 12.74311111 30.72 6.82666667 47.33155556-4.66488889-12.62933333-8.64711111-26.73777778-15.01866667-38.57066667-15.47377778 5.68888889-4.096 38.22933333-5.23377778 49.49333333-0.45511111 3.75466667-1.93422222 9.44355555-6.25777777 10.24 1.25155555-9.216-4.77866667-24.80355555-8.64711111-33.33688889-24.34844445 26.16888889-55.52355555 40.16355555-55.52355556 40.16355556s-144.49777778-172.25955555-144.72533333-172.48711111c-2.27555555-2.61688889 14.336-25.03111111 15.92888889-27.07911112 12.40177778-16.49777778 28.89955555-30.72 49.26577778-35.84 25.6-6.37155555 49.152 3.64088889 70.656 16.27022223z" fill="#9FA09D" /><path d="M714.52444445 299.91822222c16.384 9.55733333 31.51644445 21.504 43.4631111 36.18133333 6.03022222 7.39555555 11.264 15.58755555 15.36 24.23466667 2.16177778 4.43733333 3.98222222 8.98844445 5.46133334 13.76711111 1.13777778 3.41333333 1.82044445 8.41955555 1.024 11.83288889-2.048-2.61688889-3.86844445-5.46133333-6.25777778-7.85066667-1.82044445-1.82044445-4.20977778-4.20977778-6.82666666-4.89244444-4.43733333-1.25155555-3.072 2.61688889-1.47911112 5.57511111 4.55111111 8.07822222 6.94044445 16.83911111 3.75466667 25.94133333-2.61688889-6.94044445-4.77866667-14.67733333-8.192-21.16266666-8.41955555 3.072-2.27555555 20.93511111-2.84444445 27.07911111-0.22755555 2.048-1.024 5.12-3.41333333 5.57511111 0.68266667-5.12-2.61688889-13.65333333-4.66488889-18.31822222-13.312 14.336-30.49244445 21.95911111-30.49244444 21.95911111s-79.18933333-94.43555555-79.30311111-94.54933333c-1.25155555-1.47911111 7.85066667-13.65333333 8.76088889-14.90488889 6.82666667-8.98844445 15.81511111-16.83911111 26.96533333-19.56977778 13.99466667-3.29955555 26.85155555 2.16177778 38.68444445 9.10222222z" fill="#F7F7F7" /><path d="M640.11377778 325.40444445s28.33066667 33.792 51.08622222 60.8711111l3.41333333 4.096c19.34222222-18.88711111-1.13777778-85.21955555-6.144-100.352-0.34133333 0-0.56888889 0-0.91022222-0.11377777-3.86844445-0.34133333-7.73688889 0-11.71911111 0.91022222-11.15022222 2.84444445-20.25244445 10.58133333-26.96533333 19.56977778-0.79644445 1.36533333-10.01244445 13.65333333-8.76088889 15.01866667zM383.88622222 325.40444445s-28.33066667 33.792-51.08622222 60.8711111l-3.41333333 4.096c-19.34222222-18.88711111 1.13777778-85.21955555 6.144-100.352 0.34133333 0 0.56888889 0 0.91022222-0.11377777 3.86844445-0.34133333 7.73688889 0 11.71911111 0.91022222 11.15022222 2.84444445 20.25244445 10.58133333 26.96533333 19.56977778 0.79644445 1.36533333 10.01244445 13.65333333 8.76088889 15.01866667z" fill="#686B61" /><path d="M39.48088889 703.82933333l2.38933333 2.38933334zM41.87022222 706.21866667l-2.38933333-2.38933334z" fill="#E27135" /><path d="M807.70844445 806.22933333c-16.49777778 17.63555555-38.34311111 30.49244445-63.37422223 37.77422222-2.38933333 0.56888889-4.89244445 1.25155555-7.28177777 1.82044445-0.56888889 0-1.25155555 0-1.82044445 0.56888889-1.82044445 0.56888889-4.20977778 0.56888889-6.71288889 1.25155556h-1.25155556c-1.82044445 0-3.64088889 0.56888889-6.144 0.56888888-1.25155555 0-2.38933333 0-3.64088888 0.56888889-2.38933333 0-4.89244445 0.56888889-7.28177778 0.56888889-18.65955555 0.91022222-38.912 0.91022222-59.16444444 0.34133334 38.11555555-84.30933333-85.33333333-174.64888889-85.33333334-174.6488889 0 12.51555555-52.56533333 18.54577778-52.56533333 18.54577778s-52.56533333-6.03022222-52.56533333-18.54577778c0 0-123.44888889 90.22577778-85.33333334 174.6488889-21.39022222 0.68266667-42.89422222 0.79644445-62.23644444-0.22755556-11.60533333-0.56888889-23.09688889-2.38933333-34.13333334-5.46133334-12.51555555-3.41333333-24.23466667-8.41955555-34.92977778-14.7911111-10.69511111-6.37155555-20.25244445-14.22222222-28.44444444-22.98311112-29.24088889-31.63022222-65.19466667-83.51288889-63.94311111-144.95288888 0.56888889-17.06666667 3.98222222-34.70222222 11.264-52.7928889 7.28177778-18.09066667 18.31822222-36.52266667 34.47466667-55.06844444 2.38933333-3.072 4.89244445-5.46133333 7.28177778-8.53333333h1.59288888c22.98311111-27.98933333 43.46311111-57.57155555 60.416-88.51911111 37.20533333-68.49422222 103.53777778-171.008 165.31911112-171.008 6.94044445 0 13.76711111 1.25155555 20.48 4.096 15.81511111 6.71288889 32.88177778 10.35377778 50.51733333 11.60533333h17.63555555c8.53333333-0.56888889 17.18044445-1.82044445 25.71377778-3.75466667s16.95288889-4.55111111 24.80355556-7.85066666c66.33244445-27.42044445 143.81511111 90.79466667 185.79911111 166.912 17.06666667 31.06133333 38.11555555 60.98488889 60.64355555 88.51911111 2.38933333 3.072 4.89244445 5.46133333 7.28177778 8.53333333 33.45066667 37.77422222 45.62488889 74.41066667 46.76266667 107.86133334 1.93422222 61.55377778-34.58844445 113.32266667-63.82933333 144.95288888z" fill="#C7C9C3" /><path d="M764.24533333 809.41511111c-14.10844445 16.384-32.65422222 28.21688889-54.04444444 35.04355556-2.048 0.56888889-4.20977778 1.13777778-6.25777778 1.70666666-0.45511111 0-1.024 0-1.59288889 0.56888889-1.59288889 0.56888889-3.64088889 0.56888889-5.68888889 1.13777778h-1.024c-1.59288889 0-3.072 0.56888889-5.23377778 0.56888889-1.024 0-2.048 0-3.072 0.56888889-2.048 0-4.20977778 0.56888889-6.25777777 0.56888889-15.92888889 0.91022222-33.22311111 0.79644445-50.51733333 0.22755555 32.54044445-78.16533333-72.81777778-161.792-72.81777778-161.792 0 11.60533333-44.82844445 17.18044445-44.82844445 17.18044445s-44.82844445-5.57511111-44.82844444-17.18044445c0 0-105.35822222 83.62666667-72.81777778 161.792-18.31822222 0.68266667-36.63644445 0.79644445-53.13422222-0.11377777-9.89866667-0.56888889-19.68355555-2.16177778-29.12711111-5.00622223-10.69511111-3.072-20.70755555-7.73688889-29.80977778-13.65333333s-17.29422222-13.08444445-24.34844444-21.27644444c-24.91733333-29.35466667-55.63733333-77.36888889-54.49955556-134.25777778 0.56888889-15.81511111 3.41333333-32.19911111 9.55733333-48.92444445s15.70133333-33.792 29.46844445-51.08622222c2.048-2.84444445 4.20977778-5.00622222 6.25777778-7.85066667h1.36533333c19.56977778-25.94133333 37.09155555-53.36177778 51.54133333-82.03377778 31.744-63.37422222 88.40533333-158.37866667 140.97066667-158.37866666 5.91644445 0 11.71911111 1.13777778 17.52177777 3.75466666 13.53955555 6.25777778 28.10311111 9.55733333 43.12177778 10.8088889h15.01866667c7.28177778-0.56888889 14.67733333-1.70666667 21.95911111-3.52711112s14.44977778-4.20977778 21.16266667-7.28177778c56.54755555-25.37244445 122.65244445 84.08177778 158.49244444 154.624 14.56355555 28.78577778 32.54044445 56.54755555 51.76888889 82.03377778 2.048 2.84444445 4.20977778 5.00622222 6.25777778 7.85066667 28.55822222 35.04355555 38.912 68.94933333 39.936 99.89688889 1.59288889 56.77511111-29.58222222 104.78933333-54.49955556 134.03022222z" fill="#D4D6D0" /><path d="M344.51911111 575.488s-71.68-7.96444445-87.38133333 17.06666667c0 0 35.04355555-13.76711111 52.56533333-9.10222222 0 0-6.37155555 0.56888889-15.24622222 9.10222222 0 0 16.04266667-8.07822222 29.46844444-9.10222222 0 0-13.19822222 5.00622222-10.80888888 9.10222222 0 0 18.65955555-16.27022222 94.6631111-5.91644445 0.11377778 0-45.28355555-10.01244445-63.26044444-11.15022222zM679.48088889 575.488s71.68-7.96444445 87.38133333 17.06666667c0 0-35.04355555-13.76711111-52.56533333-9.10222222 0 0 6.37155555 0.56888889 15.24622222 9.10222222 0 0-16.04266667-8.07822222-29.46844444-9.10222222 0 0 13.19822222 5.00622222 10.80888888 9.10222222 0 0-18.65955555-16.27022222-94.6631111-5.91644445-0.11377778 0 45.28355555-10.01244445 63.26044444-11.15022222zM651.03644445 849.57866667c-2.50311111-0.11377778-4.89244445-0.11377778-7.39555556-0.22755556-9.10222222 9.89866667-23.21066667 19.56977778-45.16977778 25.94133334 0 0-6.25777778-101.376-85.33333333-101.376-78.62044445 0-88.064 100.12444445-88.17777778 101.376-21.39022222-6.48533333-35.27111111-16.15644445-44.25955555-25.94133334-1.82044445 0.11377778-3.64088889 0.11377778-5.46133334 0.22755556-38.11555555-84.30933333 85.33333333-174.64888889 85.33333334-174.64888889 0 12.51555555 52.56533333 18.54577778 52.56533333 18.54577777s52.56533333-6.03022222 52.56533333-18.54577777c0 0.11377778 123.44888889 90.33955555 85.33333334 174.64888889z" fill="#F7F7F7" /><path d="M556.48711111 567.75111111c5.23377778 0 9.55733333 4.32355555 9.55733334 9.55733334v102.96888888c0 13.88088889-13.76711111 25.6-33.22311112 30.15111112 7.168-31.85777778-1.36533333-142.79111111-1.36533333-142.79111112h25.03111111z" fill="#32353D" /><path d="M532.70755555 710.54222222c-5.80266667 1.36533333-12.288 2.16177778-18.8871111 2.16177778h-4.89244445c-29.01333333 0-52.224-14.44977778-52.224-32.42666667v-102.96888888c0-5.23377778 4.32355555-9.55733333 9.55733333-9.55733334H531.34222222s8.53333333 110.81955555 1.36533333 142.79111111z" fill="#090B12" /><path d="M427.008 766.40711111c1.47911111 0.45511111 3.072-0.45511111 3.52711111-2.048 0-0.11377778 2.95822222-10.12622222 13.99466667-18.09066666 3.072-2.16177778 6.37155555-3.98222222 9.78488889-5.34755556 3.75466667-1.47911111 7.62311111-2.61688889 11.60533333-3.29955556 4.32355555-0.79644445 8.87466667-1.25155555 13.312-1.25155555 5.00622222-0.11377778 9.89866667 0.22755555 14.79111111 0.79644444 5.12 0.56888889 10.24 1.47911111 15.36 2.61688889 1.36533333 0.34133333 2.50311111 0.34133333 3.86844444 0 1.36533333-0.34133333 2.73066667-0.56888889 4.096-0.91022222 2.61688889-0.56888889 5.34755555-1.024 7.96444445-1.36533334 4.89244445-0.68266667 9.89866667-1.13777778 14.90488889-1.13777777 4.43733333-0.11377778 8.98844445 0.11377778 13.42577778 0.79644444 3.98222222 0.56888889 7.96444445 1.47911111 11.83288888 2.73066667 3.52711111 1.25155555 6.94044445 2.73066667 10.12622223 4.77866666 0.91022222 0.56888889 1.70666667 1.13777778 2.50311111 1.70666667 11.03644445 7.96444445 13.99466667 17.97688889 13.99466666 18.09066667 0.45511111 1.47911111 1.93422222 2.38933333 3.52711112 2.048 1.47911111-0.45511111 2.38933333-1.93422222 2.048-3.52711111-0.11377778-0.45511111-3.29955555-11.83288889-15.81511112-20.93511111-7.85066667-5.68888889-20.48-11.264-40.27733333-11.264-8.64711111 0-18.65955555 1.13777778-30.15111111 3.64088888-11.49155555-2.61688889-21.504-3.64088889-30.15111111-3.64088888-19.68355555 0-32.42666667 5.57511111-40.27733333 11.264-12.51555555 9.216-15.70133333 20.48-15.81511112 20.93511111-0.56888889 1.47911111 0.34133333 2.95822222 1.82044445 3.41333333zM492.65777778 702.35022222c-0.34133333 0-0.79644445-0.22755555-0.91022223-0.56888889-6.59911111-10.35377778-19.68355555-9.32977778-19.79733333-9.32977778-0.68266667 0-1.13777778-0.45511111-1.25155555-1.024s0.45511111-1.13777778 1.024-1.25155555c0.56888889 0 14.67733333-1.024 21.95911111 10.35377778 0.34133333 0.56888889 0.22755555 1.25155555-0.34133333 1.59288889-0.22755555 0.11377778-0.45511111 0.22755555-0.68266667 0.22755555zM531.34222222 702.35022222c-0.22755555 0-0.45511111-0.11377778-0.56888889-0.22755555-0.56888889-0.34133333-0.68266667-1.024-0.34133333-1.59288889 7.28177778-11.49155555 21.27644445-10.46755555 21.95911111-10.35377778 0.68266667 0 1.13777778 0.56888889 1.024 1.25155555s-0.56888889 1.13777778-1.25155556 1.024c-0.11377778 0-13.312-0.91022222-19.79733333 9.32977778-0.22755555 0.34133333-0.68266667 0.56888889-1.024 0.56888889z" fill="#C7C9C3" /><path d="M408.26822315 447.8041509a14.22222222 29.92355555 68.939 1 0 55.84922624-21.50675911 14.22222222 29.92355555 68.939 1 0-55.84922624 21.50675911Z" fill="#C7C9C3" /><path d="M582.59557831 450.26319246a29.92355555 14.22222222 21.057 1 0 10.2199899-26.54502229 29.92355555 14.22222222 21.057 1 0-10.2199899 26.54502229Z" fill="#C7C9C3" /><path d="M427.80444445 501.41866667m-16.49777778 0a16.49777778 16.49777778 0 1 0 32.99555555 0 16.49777778 16.49777778 0 1 0-32.99555555 0Z" fill="#C7C9C3" /><path d="M596.19555555 501.41866667m-16.49777777 0a16.49777778 16.49777778 0 1 0 32.99555555 0 16.49777778 16.49777778 0 1 0-32.99555555 0Z" fill="#C7C9C3" /><path d="M430.08 511.77244445m-16.49777778 0a16.49777778 16.49777778 0 1 0 32.99555556 0 16.49777778 16.49777778 0 1 0-32.99555556 0Z" fill="#32353D" /><path d="M430.08 511.77244445m-14.22222222 0a14.22222222 14.22222222 0 1 0 28.44444444 0 14.22222222 14.22222222 0 1 0-28.44444444 0Z" fill="#090B12" /><path d="M439.296 505.40088889m-3.98222222 0a3.98222222 3.98222222 0 1 0 7.96444444 0 3.98222222 3.98222222 0 1 0-7.96444444 0Z" fill="#FFFFFF" /><path d="M593.92 511.77244445m-16.49777778 0a16.49777778 16.49777778 0 1 0 32.99555556 0 16.49777778 16.49777778 0 1 0-32.99555556 0Z" fill="#32353D" /><path d="M593.92 511.77244445m-14.22222222 0a14.22222222 14.22222222 0 1 0 28.44444444 0 14.22222222 14.22222222 0 1 0-28.44444444 0Z" fill="#090B12" /><path d="M602.112 505.40088889m-3.98222222 0a3.98222222 3.98222222 0 1 0 7.96444444 0 3.98222222 3.98222222 0 1 0-7.96444444 0Z" fill="#FFFFFF" /><path d="M598.47111111 875.40622222c-15.13244445 4.43733333-33.792 7.28177778-57.11644444 7.50933333-1.93422222 0.68266667-3.98222222 1.25155555-6.03022222 1.82044445-6.59911111 1.25155555-13.99466667-5.46133333-23.0968889-5.46133333s-17.06666667 6.71288889-23.77955555 4.89244444l-2.38933333-0.68266666c-25.25866667-0.22755555-45.28355555-3.29955555-61.09866667-8.07822223 0.11377778-1.25155555 9.55733333-101.376 88.17777778-101.376 79.18933333 0 85.33333333 101.376 85.33333333 101.376z" fill="#E5E5E5" /></svg>