<?xml version="1.0" standalone="no"?><!DOCTYPE svg PUBLIC "-//W3C//DTD SVG 1.1//EN" "http://www.w3.org/Graphics/SVG/1.1/DTD/svg11.dtd"><svg class="icon" width="200px" height="200.00px" viewBox="0 0 1024 1024" version="1.1" xmlns="http://www.w3.org/2000/svg"><path d="M2.27555555 511.88622222c0 281.48622222 227.89688889 509.38311111 509.38311112 509.38311111s509.38311111-227.89688889 509.38311111-509.38311111S793.14488889 2.50311111 511.65866667 2.50311111 2.27555555 230.4 2.27555555 511.88622222z" fill="#282D42" /><path d="M560.92444445 850.14755555h-48.58311112v-1.024H510.86222222v1.024h-47.78666667s-14.44977778 60.416 48.58311112 60.416h0.79644444c62.91911111 0 48.46933333-60.416 48.46933334-60.416z m-62.69155556 11.264c3.98222222-4.66488889 8.192-10.24 12.74311111-11.03644444l0.11377778 15.92888889c-8.30577778-0.34133333-12.85688889-4.89244445-12.85688889-4.89244445z m14.10844444 4.77866667v-16.04266667c4.89244445 0.11377778 9.32977778 6.03022222 13.42577778 11.15022223 0 0.11377778-4.77866667 4.77866667-13.42577778 4.89244444z" fill="#B7A869" /><path d="M308.33777778 320.73955555c-10.35377778-2.73066667-21.27644445 2.048-26.05511111 11.60533334-6.03022222 11.83288889-12.51555555 30.83377778-13.65333334 58.25422222-2.27555555 52.56533333 46.64888889 45.73866667 46.64888889 45.73866667l64.85333333-96.71111111-71.79377777-18.88711112z" fill="#FCDAC8" /><path d="M307.99644445 339.62666667s-19.56977778 14.79111111-21.27644445 50.176 34.13333333 30.83377778 34.13333333 30.83377778l47.44533334-65.19466667-60.30222222-15.81511111z" fill="#EFCABB" /><path d="M314.368 351.68711111s-17.74933333 9.78488889-19.11466667 37.66044444c-1.36533333 27.98933333 26.96533333 24.34844445 26.96533334 24.34844445l37.43288888-51.42755555-45.28355555-10.58133334z" fill="#D8B0A3" /><path d="M645.34755555 339.62666667l64.85333334 96.71111111s48.92444445 6.82666667 46.64888889-45.73866667c-1.13777778-27.42044445-7.73688889-46.42133333-13.65333333-58.25422222-4.77866667-9.55733333-15.70133333-14.336-26.05511112-11.60533334l-71.79377778 18.88711112z" fill="#FCDAC8" /><path d="M657.06666667 355.44177778l47.44533333 65.19466667s35.84 4.55111111 34.13333333-30.83377778-21.27644445-50.176-21.27644444-50.176l-60.30222222 15.81511111z" fill="#EFCABB" /><path d="M665.71377778 362.26844445l37.43288889 51.42755555s28.33066667 3.64088889 26.96533333-24.34844445c-1.36533333-27.87555555-19.11466667-37.66044445-19.11466667-37.66044444l-45.28355555 10.58133334zM525.76711111 861.41155555s-4.77866667 4.66488889-13.42577778 4.89244445h-0.79644444c-8.64711111-0.11377778-13.42577778-4.77866667-13.42577778-4.77866667 4.096-4.89244445 8.64711111-10.69511111 13.42577778-11.15022222h0.68266666c5.12-0.11377778 9.55733333 5.80266667 13.53955556 11.03644444z" fill="#D8B0A3" /><path d="M39.48088889 703.82933333l2.38933333 2.38933334zM41.87022222 706.21866667l-2.38933333-2.38933334z" fill="#E27135" /><path d="M807.70844445 806.22933333c-16.49777778 17.63555555-38.34311111 30.49244445-63.37422223 37.77422222-2.38933333 0.56888889-4.89244445 1.25155555-7.28177777 1.82044445-0.56888889 0-1.25155555 0-1.82044445 0.56888889-1.82044445 0.56888889-4.20977778 0.56888889-6.71288889 1.25155556h-1.25155556c-1.82044445 0-3.64088889 0.56888889-6.144 0.56888888-1.25155555 0-2.38933333 0-3.64088888 0.56888889-2.38933333 0-4.89244445 0.56888889-7.28177778 0.56888889-18.65955555 0.91022222-38.912 0.91022222-59.16444444 0.34133334 38.11555555-84.30933333-85.33333333-174.64888889-85.33333334-174.6488889 0 12.51555555-52.56533333 18.54577778-52.56533333 18.54577778s-52.56533333-6.03022222-52.56533333-18.54577778c0 0-123.44888889 90.22577778-85.33333334 174.6488889-21.39022222 0.68266667-42.89422222 0.79644445-62.23644444-0.22755556-11.60533333-0.56888889-23.09688889-2.38933333-34.13333334-5.46133334-12.51555555-3.41333333-24.23466667-8.41955555-34.92977778-14.7911111-10.69511111-6.37155555-20.25244445-14.22222222-28.44444444-22.98311112-29.24088889-31.63022222-65.19466667-83.51288889-63.94311111-144.95288888 0.56888889-17.06666667 3.98222222-34.70222222 11.264-52.7928889s86.92622222-121.28711111 103.87911111-152.12088888c11.60533333-21.27644445 26.05511111-45.96622222 42.32533334-69.74577778 1.024-1.47911111 2.50311111-2.61688889 4.20977777-3.29955556l22.75555556-8.30577778c1.93422222-0.68266667 1.25155555-3.52711111-0.79644445-3.29955555l-10.92266666 1.36533333c-2.38933333 0.34133333-3.98222222-2.38933333-2.61688889-4.43733333 22.41422222-30.26488889 47.33155555-57.344 72.704-71.90755555 20.36622222 18.31822222 57.00266667 39.25333333 117.98755555 39.25333333 61.32622222 0 96.71111111-21.16266667 115.82577778-39.59466667 26.85155555 15.36 53.47555555 44.82844445 77.02755556 77.36888889l-16.384-2.048c-2.048-0.22755555-2.73066667 2.61688889-0.79644445 3.29955555l21.61777778 7.96444445c1.70666667 0.56888889 3.18577778 1.82044445 4.20977778 3.29955555 16.49777778 23.89333333 31.06133333 48.69688889 42.89422222 70.2008889 17.06666667 31.06133333 38.11555555 60.98488889 60.64355555 88.5191111 2.38933333 3.072 4.89244445 5.46133333 7.28177778 8.53333334 33.45066667 37.77422222 45.62488889 74.41066667 46.76266667 107.86133333 2.048 61.44-34.47466667 113.20888889-63.71555555 144.83911111z" fill="#646860" /><path d="M309.47555555 668.55822222c-20.48 81.92 17.408 181.36177778 17.408 181.36177778l184.66133334 0.22755555V594.944c0.11377778 0-181.58933333-8.30577778-202.06933334 73.61422222zM714.52444445 668.55822222c-20.48-81.92-202.18311111-73.61422222-202.18311112-73.61422222v255.20355555l184.66133334-0.22755555c0.11377778 0 38.00177778-99.44177778 17.52177778-181.36177778z" fill="#DDCA7A" /><path d="M699.392 567.75111111c-21.84533333-1.59288889-29.35466667-51.42755555-7.168-77.02755556s-10.24-52.90666667-51.2-92.16-128.68266667-19.456-128.68266667-19.456h-0.79644444s-87.72266667-19.79733333-128.68266667 19.456-73.38666667 66.56-51.2 92.16c12.06044445 13.88088889 15.36 34.92977778 12.288 51.54133334-1.25155555 6.82666667-3.64088889 12.97066667-6.82666667 17.52177778-3.29955555 4.66488889-7.62311111 7.62311111-12.62933333 7.96444444-5.46133333 0.34133333-3.072 10.80888889 3.75466667 26.16888889 0.79644445 1.70666667 1.59288889 3.64088889 2.50311111 5.46133333 0.34133333 0.91022222 0.79644445 1.70666667 1.25155555 2.61688889 22.64177778 46.99022222 73.95555555 125.61066667 73.95555556 125.61066667h105.35822222v0.11377778h0.91022222v-0.11377778H617.81333333c0.11377778 0 103.424-158.26488889 81.57866667-159.85777778z" fill="#3E4239" /><path d="M395.94666667 560.92444445s-5.57511111 25.25866667 24.80355555 33.90577777c30.37866667 8.53333333 42.32533333-3.18577778 52.56533333 7.28177778l11.37777778-29.80977778-78.62044444-29.80977777L395.94666667 560.92444445z"  /><path d="M332.11733333 601.99822222c-0.45511111-0.91022222-0.91022222-1.70666667-1.25155555-2.61688889-0.91022222-1.93422222-1.70666667-3.75466667-2.50311111-5.46133333-6.82666667-15.36-9.32977778-25.71377778-3.75466667-26.16888889 5.00622222-0.34133333 9.32977778-3.29955555 12.62933333-7.96444444 3.29955555-4.55111111 5.57511111-10.58133333 6.82666667-17.52177778 4.77866667 8.41955555 16.95288889 36.06755555-11.94666667 59.73333333z" fill="#A6AF9C" /><path d="M628.05333333 560.92444445s5.57511111 25.25866667-24.80355555 33.90577777c-30.37866667 8.53333333-42.32533333-3.18577778-52.56533333 7.28177778L539.30666667 572.30222222l78.62044444-29.80977777L628.05333333 560.92444445z"  /><path d="M543.06133333 572.18844445l-31.06133333 1.024-31.06133333-1.024-55.40977778 142.22222222h172.94222222z" fill="#95ACB5" /><path d="M570.368 642.16177778H453.632L425.52888889 714.41066667h172.94222222z" fill="#B8CED8" /><path d="M338.26133333 614.17244445l67.81155556 113.43644444-18.88711111 35.04355556zM685.73866667 614.17244445l-67.81155556 113.43644444 18.88711111 35.04355556z" fill="#95ACB5" /><path d="M461.14133333 727.60888889H406.18666667s-53.248-81.69244445-75.20711112-128.22755556l130.16177778 128.22755556zM562.97244445 727.60888889h54.95466666s53.248-81.69244445 75.20711111-128.22755556L562.97244445 727.60888889z" fill="#B8CED8" /><path d="M438.38577778 878.81955555c-4.66488889-1.024-8.98844445-2.048-12.97066667-3.29955555-0.11377778 0-0.22755555-0.11377778-0.34133333-0.11377778-21.39022222-6.48533333-35.27111111-16.15644445-44.25955556-25.94133333-1.82044445 0.11377778-3.64088889 0.11377778-5.46133333 0.22755556-9.44355555-20.93511111-8.98844445-42.32533333-2.84444444-62.464 3.41333333-11.264 8.53333333-22.07288889 14.56355555-32.42666667 26.05511111-5.34755555 61.78133333-8.192 73.728 13.08444444 17.18044445 30.72-2.38933333 89.54311111-22.41422222 110.93333333z" fill="#C1BCB8" /><path d="M525.76711111 861.41155555c-4.096-5.12-8.53333333-11.03644445-13.42577778-11.15022222h-0.68266666c-4.77866667 0.45511111-9.32977778 6.25777778-13.42577778 11.15022222 1.024-3.18577778 3.29955555-8.30577778 7.28177778-11.264 1.82044445-1.25155555 3.98222222-2.16177778 6.59911111-2.16177777s4.77866667 0.79644445 6.59911111 2.16177777c3.86844445 2.95822222 6.03022222 8.07822222 7.05422222 11.264z"  /><path d="M651.03644445 849.57866667c-2.50311111-0.11377778-4.89244445-0.11377778-7.39555556-0.22755556-9.10222222 9.89866667-23.21066667 19.56977778-45.16977778 25.94133334-15.01866667 4.43733333-33.792-7.62311111-57.11644444-7.39555556-1.93422222 0.68266667-3.98222222 0.34133333-6.03022222 0.91022222-2.95822222 0.56888889-6.144-3.18577778-9.55733334-7.50933333-1.47911111-4.66488889-5.46133333-13.312-13.76711111-13.312s-12.288 8.76088889-13.76711111 13.312c-3.52711111 4.20977778-6.71288889 7.73688889-9.78488889 6.94044444-0.79644445-0.22755555-1.59288889 0.56888889-2.38933333 0.34133333-18.54577778-0.11377778-34.36088889 12.97066667-47.67288889 10.24 20.02488889-21.39022222 39.59466667-80.21333333 22.30044444-111.0471111-11.83288889-21.16266667-47.67288889-18.432-73.728-13.08444445 27.07911111-45.73866667 84.53688889-79.64444445 84.53688889-79.64444445 0 12.51555555 41.64266667 18.54577778 41.64266667 18.54577778s39.36711111-6.03022222 39.36711111-18.54577778c0 0 136.64711111 90.22577778 98.53155556 174.53511112z" fill="#8C8781" /><path d="M560.58311111 724.76444445h-97.16622222l20.59377778-127.20355556 27.98933333-13.65333334 27.98933333 13.65333334z" fill="#F0725A" /><path d="M512 583.90755555l-27.98933333 13.65333334c-9.78488889-24.23466667-75.32088889-21.39022222-82.37511112-48.24177778s14.90488889-25.25866667 14.9048889-25.25866666c18.65955555 1.70666667 38.11555555 16.61155555 52.90666666 31.1751111 14.79111111 14.56355555 24.91733333 28.672 24.91733334 28.672H512zM622.36444445 549.31911111c-3.52711111 13.42577778-21.61777778 19.34222222-40.16355556 25.03111111-18.54577778 5.68888889-37.31911111 11.03644445-42.21155556 23.21066667l-27.98933333-13.65333334h17.63555555s40.73244445-56.43377778 77.824-59.8471111c0 0 21.95911111-1.47911111 14.9048889 25.25866666z" fill="#383A35" /><path d="M512 718.96177778c-1.70666667-0.45511111-48.46933333-12.74311111-51.31377778 5.12 0 12.51555555 52.56533333 18.54577778 52.56533333 18.54577777s52.56533333-6.03022222 52.56533334-18.54577777c-3.072-17.86311111-51.99644445-5.57511111-53.81688889-5.12z" fill="#FFDDA9" /><path d="M512 727.15377778c-1.70666667-0.45511111-48.46933333-16.384-51.31377778 1.47911111 0 12.51555555 51.31377778 29.80977778 51.31377778 29.80977778s53.70311111-17.29422222 53.70311111-29.80977778c-2.95822222-17.86311111-51.88266667-1.93422222-53.70311111-1.47911111z" fill="#F0725A" /><path d="M375.92177778 511.77244445h110.25066667c9.89866667 0 17.97688889-9.216 18.20444444-20.82133334 0.79644445-35.49866667-3.86844445-103.76533333-50.51733334-103.76533333 0 0-77.14133333-10.46755555-95.91466666 98.87288889-2.16177778 13.312 6.48533333 25.71377778 17.97688889 25.71377778zM648.07822222 511.77244445h-110.25066667c-9.89866667 0-17.97688889-9.216-18.20444444-20.82133334-0.79644445-35.49866667 3.86844445-103.76533333 50.51733334-103.76533333 0 0 77.14133333-10.46755555 95.91466666 98.87288889 2.16177778 13.312-6.48533333 25.71377778-17.97688889 25.71377778z" fill="#989E92" /><path d="M454.88355555 519.168h24.00711112c5.12 0 7.73688889 4.77866667 4.096 7.62311111-4.32355555 3.41333333-10.46755555 6.59911111-18.77333334 6.59911111-5.57511111 0-10.12622222-1.47911111-13.88088888-3.41333333-6.03022222-3.29955555-2.84444445-10.80888889 4.5511111-10.80888889zM569.11644445 519.168h-24.00711112c-5.12 0-7.73688889 4.77866667-4.096 7.62311111 4.32355555 3.41333333 10.46755555 6.59911111 18.77333334 6.59911111 5.57511111 0 10.12622222-1.47911111 13.88088888-3.41333333 6.03022222-3.29955555 2.84444445-10.80888889-4.5511111-10.80888889zM434.40355555 539.76177778s-15.92888889-5.46133333-28.33066666 5.34755555 5.80266667 31.28888889 5.80266666 31.28888889 53.36177778 3.18577778 56.8888889 10.58133333 12.74311111-0.56888889 7.39555555-7.6231111c-5.34755555-6.94044445-26.16888889-40.61866667-41.75644445-39.59466667z" fill="#1A2113" /><path d="M453.632 562.28977778c0 1.024-0.11377778 1.93422222-0.22755555 2.95822222-11.49155555-9.216-30.37866667-13.19822222-41.5288889-14.67733333 3.98222222-6.48533333 11.15022222-10.69511111 19.22844445-10.69511112 12.51555555-0.11377778 22.528 10.01244445 22.528 22.41422223z" fill="#B29109" /><path d="M453.51822222 565.248c-0.22755555 1.70666667-0.68266667 3.41333333-1.25155555 5.00622222-3.18577778 8.53333333-11.49155555 14.56355555-21.04888889 14.56355556-12.40177778 0-22.528-10.12622222-22.528-22.528 0-3.41333333 0.79644445-6.59911111 2.048-9.55733333l1.25155555-2.27555556c11.03644445 1.59288889 30.03733333 5.57511111 41.52888889 14.79111111z" fill="#F9D021" /><path d="M417.45066667 553.984c-0.34133333 0.56888889-0.56888889 1.024-0.91022222 1.59288889l0.91022222-1.59288889z" fill="#CA4C45" /><path d="M431.104 586.52444445c-13.08444445 0-23.66577778-10.58133333-23.66577778-23.66577778s10.58133333-23.66577778 23.66577778-23.66577778 23.66577778 10.58133333 23.66577778 23.66577778-10.58133333 23.66577778-23.66577778 23.66577778z m0-45.056c-11.83288889 0-21.39022222 9.55733333-21.39022222 21.39022222s9.55733333 21.39022222 21.39022222 21.39022222 21.39022222-9.55733333 21.39022222-21.39022222-9.55733333-21.39022222-21.39022222-21.39022222z"  /><path d="M431.104 562.85866667m-10.35377778 0a10.35377778 10.35377778 0 1 0 20.70755556 0 10.35377778 10.35377778 0 1 0-20.70755556 0Z"  /><path d="M440.32 556.25955555m-4.55111111 0a4.55111111 4.55111111 0 1 0 9.10222222 0 4.55111111 4.55111111 0 1 0-9.10222222 0Z" fill="#FFFFFF" /><path d="M589.59644445 539.76177778s15.92888889-5.46133333 28.33066666 5.34755555-5.80266667 31.28888889-5.80266666 31.28888889-53.36177778 3.18577778-56.8888889 10.58133333-12.74311111-0.56888889-7.39555555-7.6231111c5.34755555-6.94044445 26.16888889-40.61866667 41.75644445-39.59466667z" fill="#1A2113" /><path d="M570.368 562.28977778c0 1.024 0.11377778 1.93422222 0.22755555 2.95822222 11.49155555-9.216 30.37866667-13.19822222 41.5288889-14.67733333-3.98222222-6.48533333-11.15022222-10.69511111-19.22844445-10.69511112-12.51555555-0.11377778-22.528 10.01244445-22.528 22.41422223z" fill="#B29109" /><path d="M570.48177778 565.248c0.22755555 1.70666667 0.68266667 3.41333333 1.25155555 5.00622222 3.18577778 8.53333333 11.49155555 14.56355555 21.04888889 14.56355556 12.40177778 0 22.528-10.12622222 22.528-22.528 0-3.41333333-0.79644445-6.59911111-2.048-9.55733333l-1.25155555-2.27555556c-11.03644445 1.59288889-30.03733333 5.57511111-41.52888889 14.79111111z" fill="#F9D021" /><path d="M592.896 586.52444445c-13.08444445 0-23.66577778-10.58133333-23.66577778-23.66577778s10.58133333-23.66577778 23.66577778-23.66577778 23.66577778 10.58133333 23.66577778 23.66577778-10.58133333 23.66577778-23.66577778 23.66577778z m0-45.056c-11.83288889 0-21.39022222 9.55733333-21.39022222 21.39022222s9.55733333 21.39022222 21.39022222 21.39022222 21.39022222-9.55733333 21.39022222-21.39022222-9.55733333-21.39022222-21.39022222-21.39022222z"  /><path d="M592.896 562.85866667m-10.35377778 0a10.35377778 10.35377778 0 1 0 20.70755556 0 10.35377778 10.35377778 0 1 0-20.70755556 0Z"  /><path d="M600.97422222 556.25955555m-4.55111111 0a4.55111111 4.55111111 0 1 0 9.10222222 0 4.55111111 4.55111111 0 1 0-9.10222222 0Z" fill="#FFFFFF" /><path d="M691.88266667 601.99822222c0.45511111-0.91022222 0.91022222-1.70666667 1.25155555-2.61688889 0.91022222-1.93422222 1.70666667-3.75466667 2.50311111-5.46133333 6.82666667-15.36 9.32977778-25.71377778 3.75466667-26.16888889-5.00622222-0.34133333-9.32977778-3.29955555-12.62933333-7.96444444-3.29955555-4.55111111-5.57511111-10.58133333-6.82666667-17.52177778-4.77866667 8.41955555-16.83911111 36.06755555 11.94666667 59.73333333z" fill="#A6AF9C" /><path d="M628.28088889 296.39111111c-19.11466667 18.432-54.49955555 39.59466667-115.82577778 39.59466667-60.98488889 0-97.62133333-20.93511111-117.98755556-39.25333333 12.51555555-7.168 25.14488889-11.37777778 37.54666667-11.37777778 6.94044445 0 13.76711111 1.25155555 20.48 4.096 15.81511111 6.71288889 32.88177778 10.35377778 50.51733333 11.60533333h17.63555556c8.53333333-0.56888889 17.18044445-1.82044445 25.71377778-3.75466667s16.95288889-4.55111111 24.80355556-7.85066666c18.432-7.73688889 37.888-3.98222222 57.11644444 6.94044444z" fill="#4A5140" /><path d="M587.32088889 878.81955555c4.66488889-1.024 8.98844445-2.048 13.08444444-3.29955555 0.11377778 0 0.22755555-0.11377778 0.45511112-0.11377778 21.504-6.48533333 35.49866667-16.15644445 44.60088888-25.94133333 1.82044445 0.11377778 3.64088889 0.11377778 5.57511112 0.22755556 9.55733333-20.93511111 8.98844445-42.32533333 2.84444444-62.464-3.41333333-11.264-8.53333333-22.07288889-14.67733334-32.42666667-26.28266667-5.34755555-62.23644445-8.192-74.1831111 13.08444444-17.63555555 30.72 2.16177778 89.54311111 22.30044444 110.93333333z" fill="#C1BCB8" /><path d="M552.16355555 738.75911111c-3.75466667-2.50311111-11.60533333-6.48533333-18.31822222 0.22755556-6.59911111 6.59911111-6.82666667 10.69511111-6.48533333 12.40177778 0.11377778 0.68266667-0.11377778 1.25155555-0.79644445 1.4791111l-14.56355555 5.46133334-14.56355555-5.46133334c-0.56888889-0.22755555-0.91022222-0.91022222-0.79644445-1.4791111 0.45511111-1.70666667 0.22755555-5.80266667-6.48533333-12.40177778-7.168-7.168-15.36-3.18577778-18.77333334-0.91022222-0.79644445 0.56888889-0.79644445 1.70666667 0 2.16177777l23.21066667 13.88088889c1.36533333 0.79644445 2.84444445 1.25155555 4.43733333 1.36533334 7.39555555 0.79644445 10.58133333 5.57511111 11.94666667 9.216v0.11377777l1.024 54.61333333 1.024-54.49955555v-0.11377778c1.36533333-3.64088889 4.55111111-8.41955555 11.94666667-9.216 1.59288889-0.22755555 3.072-0.56888889 4.43733333-1.36533333l22.528-12.40177778c1.13777778-0.79644445 1.25155555-2.38933333 0.22755555-3.072z"  /><path d="M378.88 794.85155555m-4.20977778 0a4.20977778 4.20977778 0 1 0 8.41955556 0 4.20977778 4.20977778 0 1 0-8.41955556 0Z" fill="#EDEAE6" /><path d="M386.95822222 815.104m-4.20977777 0a4.20977778 4.20977778 0 1 0 8.41955555 0 4.20977778 4.20977778 0 1 0-8.41955555 0Z" fill="#EDEAE6" /><path d="M401.86311111 834.33244445m-4.20977778 0a4.20977778 4.20977778 0 1 0 8.41955556 0 4.20977778 4.20977778 0 1 0-8.41955556 0Z" fill="#EDEAE6" /><path d="M397.99466667 791.43822222m-3.41333334 0a3.41333333 3.41333333 0 1 0 6.82666667 0 3.41333333 3.41333333 0 1 0-6.82666667 0Z" fill="#EDEAE6" /><path d="M404.70755555 808.27733333m-3.41333333 0a3.41333333 3.41333333 0 1 0 6.82666667 0 3.41333333 3.41333333 0 1 0-6.82666667 0Z" fill="#EDEAE6" /><path d="M416.99555555 824.09244445m-3.41333333 0a3.41333333 3.41333333 0 1 0 6.82666667 0 3.41333333 3.41333333 0 1 0-6.82666667 0Z" fill="#EDEAE6" /><path d="M424.04977778 787.11466667m-2.50311111 0a2.50311111 2.50311111 0 1 0 5.00622222 0 2.50311111 2.50311111 0 1 0-5.00622222 0Z" fill="#EDEAE6" /><path d="M428.94222222 799.40266667m-2.50311111 0a2.50311111 2.50311111 0 1 0 5.00622222 0 2.50311111 2.50311111 0 1 0-5.00622222 0Z" fill="#EDEAE6" /><path d="M438.04444445 811.008m-2.50311112 0a2.50311111 2.50311111 0 1 0 5.00622222 0 2.50311111 2.50311111 0 1 0-5.00622222 0Z" fill="#EDEAE6" /><path d="M645.12 794.85155555m-4.20977778 0a4.20977778 4.20977778 0 1 0 8.41955556 0 4.20977778 4.20977778 0 1 0-8.41955556 0Z" fill="#EDEAE6" /><path d="M637.04177778 815.104m-4.20977778 0a4.20977778 4.20977778 0 1 0 8.41955555 0 4.20977778 4.20977778 0 1 0-8.41955555 0Z" fill="#EDEAE6" /><path d="M622.13688889 834.33244445m-4.20977778 0a4.20977778 4.20977778 0 1 0 8.41955556 0 4.20977778 4.20977778 0 1 0-8.41955556 0Z" fill="#EDEAE6" /><path d="M626.00533333 791.43822222m-3.41333333 0a3.41333333 3.41333333 0 1 0 6.82666667 0 3.41333333 3.41333333 0 1 0-6.82666667 0Z" fill="#EDEAE6" /><path d="M619.29244445 808.27733333m-3.41333334 0a3.41333333 3.41333333 0 1 0 6.82666667 0 3.41333333 3.41333333 0 1 0-6.82666667 0Z" fill="#EDEAE6" /><path d="M607.00444445 824.09244445m-3.41333334 0a3.41333333 3.41333333 0 1 0 6.82666667 0 3.41333333 3.41333333 0 1 0-6.82666667 0Z" fill="#EDEAE6" /><path d="M599.95022222 787.11466667m-2.50311111 0a2.50311111 2.50311111 0 1 0 5.00622222 0 2.50311111 2.50311111 0 1 0-5.00622222 0Z" fill="#EDEAE6" /><path d="M595.05777778 799.40266667m-2.50311111 0a2.50311111 2.50311111 0 1 0 5.00622222 0 2.50311111 2.50311111 0 1 0-5.00622222 0Z" fill="#EDEAE6" /><path d="M585.95555555 811.008m-2.5031111 0a2.50311111 2.50311111 0 1 0 5.00622222 0 2.50311111 2.50311111 0 1 0-5.00622222 0Z" fill="#EDEAE6" /></svg>