<?xml version="1.0" standalone="no"?><!DOCTYPE svg PUBLIC "-//W3C//DTD SVG 1.1//EN" "http://www.w3.org/Graphics/SVG/1.1/DTD/svg11.dtd"><svg class="icon" width="200px" height="200.00px" viewBox="0 0 1024 1024" version="1.1" xmlns="http://www.w3.org/2000/svg"><path d="M24.41216 506.75712c0 269.13450667 217.87079111 487.00529778 487.00529778 487.00529778s487.00529778-217.87079111 487.00529777-487.00529778-217.87079111-487.00529778-487.00529777-487.00529778-487.00529778 217.87079111-487.00529778 487.00529778z" fill="#F26C53" /><path d="M405.39477333 323.25632L296.45937778 236.45752889c-11.65084445-9.32067555-28.54456889-2.91271111-30.87473778 11.65084444-8.73813333 47.76846222-16.89372445 138.06250667 39.03032889 172.43249778l100.77980444-97.28455111z" fill="#2C1716" /><path d="M418.21070222 359.37393778l-106.60522667 54.17642667-9.32067555-3.49525334c-26.2144-26.79694222 16.89372445-115.34336 19.22389333-119.42115556l96.70200889 68.73998223z" fill="#210E14" /><path d="M618.60522667 323.25632L727.54062222 236.45752889c11.65084445-9.32067555 28.54456889-2.91271111 30.87473778 11.65084444 8.73813333 47.76846222 16.89372445 138.06250667-39.03032889 172.43249778l-100.77980444-97.28455111z" fill="#2C1716" /><path d="M605.78929778 359.37393778l106.60522667 54.17642667 9.32067555-3.49525334c26.2144-26.79694222-16.89372445-115.34336-19.22389333-119.42115556l-96.70200889 68.73998223z" fill="#210E14" /><path d="M322.09123555 290.05141333c-2.33016889 4.07779555-45.43829333 93.20675555-19.22389333 119.42115556-38.44778667-23.30168889-37.28270222-86.21624889-31.45728-122.91640889 2.33016889-14.56355555 19.80643555-21.55406222 31.45728-12.23338667l19.22389333 15.72864zM701.90876445 290.05141333c2.33016889 4.07779555 45.43829333 93.20675555 19.22389333 119.42115556 38.44778667-23.30168889 37.28270222-86.21624889 31.45728-122.91640889-2.33016889-14.56355555-19.80643555-21.55406222-31.45728-12.23338667l-19.22389333 15.72864z" fill="#8A6B4F" /><path d="M855.69991111 650.06250667l-2.33016889 2.33016888 2.33016889-2.33016888c1.74762667 58.83676445-33.20490667 108.35285333-61.16693333 138.64504888-15.72864 16.89372445-36.70016 29.12711111-60.58439111 36.11761778l-6.99050667 1.74762667c-0.58254222 0-1.16508445 0-1.74762667 0.58254222-1.74762667 0.58254222-4.07779555 0.58254222-6.40796444 1.16508445h-1.16508444c-1.74762667 0-3.49525333 0.58254222-5.82542223 0.58254222-1.16508445 0-2.33016889 0-3.49525333 0.58254222-2.33016889 0-4.66033778 0.58254222-6.99050667 0.58254222-33.78744889 1.74762667-73.40032 0-107.77031111-2.33016888-3.49525333 0-6.40796445-0.58254222-9.90321778-0.58254223-4.07779555 0-7.57304889-0.58254222-11.65084444-1.16508444h-1.16508444s-20.97152-32.03982222-59.41930667-32.03982223-59.41930667 32.03982222-59.41930667 32.03982223h-1.16508444c-3.49525333 0-7.57304889 0.58254222-11.65084445 1.16508444-3.49525333 0-6.99050667 0.58254222-10.48576 0.58254223-34.36999111 2.33016889-73.98286222 4.07779555-107.18776889 2.33016888-11.06830222-0.58254222-22.13660445-2.33016889-32.62236444-5.24288-23.88423111-6.40796445-44.85575111-19.22389333-60.58439111-36.11761778-27.96202667-30.29219555-62.33201778-79.80828445-61.16693333-138.64504888l2.33016888 1.74762666-2.33016888-1.74762666c1.16508445-32.62236445 12.81592889-67.57489778 43.69066666-103.10997334 2.33016889-2.91271111 4.66033778-5.24288 6.99050667-8.15559111 9.90321778-0.58254222 22.71914667 2.33016889 32.03982222-1.74762667 8.15559111-3.49525333 13.39847111-11.65084445 18.05880889-18.05880888 6.40796445-8.73813333 12.81592889-18.05880889 18.64135111-27.37948445 22.13660445-34.95253333 42.52558222-73.98286222 73.98286222-100.77980444 51.26371555-43.69066667 150.29589333 19.80643555 150.29589333 19.80643555s99.03217778-63.49710222 150.29589334-19.80643555c32.03982222 26.79694222 52.4288 66.40981333 73.98286222 100.77980444 5.82542222 9.32067555 11.65084445 18.64135111 18.64135111 27.37948445 4.66033778 6.40796445 10.48576 14.56355555 18.05880889 18.05880888 9.32067555 4.66033778 22.13660445 1.74762667 32.03982222 1.74762667 2.33016889 2.91271111 4.66033778 5.24288 6.99050667 8.15559111 32.03982222 36.11761778 43.69066667 71.07015111 44.85575111 103.10997334z" fill="#492516" /><path d="M59.94723555 690.25792l2.3301689 2.33016889zM62.27740445 692.58808889l-2.3301689-2.33016889z" fill="#E27135" /><path d="M746.18197333 454.32832c-40.19541333-72.81777778-114.17827555-185.83096889-177.67537778-159.61656889-15.14609778 6.40796445-32.03982222 9.90321778-48.35100444 11.06830222h-16.89372444c-16.89372445-1.16508445-33.20490667-4.66033778-48.35100445-11.06830222-64.07964445-26.2144-138.06250667 86.79879111-177.67537777 159.61656889-16.31118222 29.70965333-37.28270222 57.67168-59.41930667 84.46862222 9.90321778-0.58254222 23.88423111 2.91271111 33.20490667-1.16508444 8.15559111-3.49525333 13.39847111-11.65084445 18.05880888-18.05880889 6.40796445-8.73813333 12.81592889-18.05880889 18.64135112-27.37948444 22.13660445-34.95253333 42.52558222-73.98286222 73.98286222-100.77980445 16.31118222-13.98101333 37.28270222-16.89372445 58.25422222-14.56355555 15.72864 1.74762667 31.45728 5.82542222 45.43829333 11.06830222l13.98101333 83.88608c0 0.58254222 0 1.16508445 0.58254223 1.74762666 0 2.91271111 0 9.32067555-0.58254223 18.05880889-13.39847111-19.22389333-37.86524445-32.62236445-65.24472888-32.62236444-42.52558222 0-76.31303111 30.29219555-76.31303112 66.99235555s34.36999111 66.99235555 76.31303112 66.99235556c14.56355555 0 28.54456889-3.49525333 40.19541333-9.90321778-26.2144 44.27320889-79.80828445 76.31303111-186.99605333 35.53507556 0 0-39.61287111 157.2864 53.59388444 174.76266666h48.35100444l82.13845334 32.03982222s20.97152-43.69066667 58.83676444-43.69066666 60.00184889 43.69066667 60.00184889 43.69066666l82.13845333-32.03982222h48.35100445c93.20675555-17.47626667 53.59388445-174.76266667 53.59388445-174.76266666-107.77031111 40.77795555-160.78165333 8.73813333-186.99605334-35.53507556 11.65084445 6.40796445 25.63185778 9.90321778 40.19541334 9.90321778 42.52558222 0 76.31303111-30.29219555 76.3130311-66.99235556s-34.36999111-66.99235555-76.3130311-66.99235555c-27.96202667 0-51.84625778 12.81592889-65.2447289 32.62236444-0.58254222-8.73813333-0.58254222-15.14609778-0.58254222-18.05880889 0-0.58254222 0.58254222-1.16508445 0.58254222-1.74762666l15.14609778-84.46862222c32.62236445-12.23338667 75.14794667-20.97152 103.69251556 3.49525333 32.03982222 26.79694222 52.4288 66.40981333 73.98286222 100.77980444 5.82542222 9.32067555 11.65084445 18.64135111 18.64135111 27.37948445 4.66033778 6.40796445 10.48576 14.56355555 18.05880889 18.05880888 9.32067555 4.66033778 22.13660445 1.74762667 32.03982222 1.74762667-21.55406222-26.2144-41.36049778-54.75896889-57.67168-84.46862222z" fill="#835339" /><path d="M571.41930667 825.40771555c-0.58254222 3.49525333-5.24288 27.96202667-37.28270222 36.70016-6.40796445 1.74762667-13.39847111-5.82542222-22.13660445-5.82542222s-16.31118222 6.99050667-22.71914667 5.24288c-32.03982222-9.32067555-36.11761778-34.36999111-36.70016-36.70016 0 0 20.38897778-43.69066667 58.83676445-43.69066666 37.86524445 1.16508445 60.00184889 44.27320889 60.00184889 44.27320888z" fill="#AF8C65" /><path d="M556.27320889 756.66773333H465.97916445v-149.71335111c0-23.88423111 19.22389333-43.10812445 43.10812444-43.10812444h4.07779556c23.88423111 0 43.10812445 19.22389333 43.10812444 43.10812444V756.66773333z" fill="#9B664B" /><path d="M297.04192 520.15559111m-29.12711111 0a29.12711111 29.12711111 0 1 0 58.25422222 0 29.12711111 29.12711111 0 1 0-58.25422222 0Z" fill="#5C331F" /><path d="M297.04192 520.15559111m-24.46677333 0a24.46677333 24.46677333 0 1 0 48.93354666 0 24.46677333 24.46677333 0 1 0-48.93354666 0Z" fill="#090B12" /><path d="M307.52768 513.74762667m-6.40796445 0a6.40796445 6.40796445 0 1 0 12.8159289 0 6.40796445 6.40796445 0 1 0-12.8159289 0Z" fill="#FFFFFF" /><path d="M726.95808 520.15559111m-29.12711111 0a29.12711111 29.12711111 0 1 0 58.25422222 0 29.12711111 29.12711111 0 1 0-58.25422222 0Z" fill="#5C331F" /><path d="M726.95808 520.15559111m-24.46677333 0a24.46677333 24.46677333 0 1 0 48.93354666 0 24.46677333 24.46677333 0 1 0-48.93354666 0Z" fill="#090B12" /><path d="M739.19146667 513.74762667m-6.40796445 0a6.40796445 6.40796445 0 1 0 12.81592889 0 6.40796445 6.40796445 0 1 0-12.81592889 0Z" fill="#FFFFFF" /><path d="M389.66613333 775.89162667l-20.38897778 17.47626666s-1.74762667-12.81592889-2.9127111-29.70965333l19.22389333-24.46677333c2.33016889 17.47626667 4.07779555 32.62236445 4.07779555 36.70016z" fill="#CCAC8F" /><path d="M385.58833778 739.19146667l-19.22389333 24.46677333c-1.74762667-27.37948445-1.16508445-66.40981333 12.81592888-80.97336889 0.58254222 0 3.49525333 30.29219555 6.40796445 56.50659556z" fill="#E4C8B1" /><path d="M633.16878222 775.89162667l20.38897778 17.47626666s1.74762667-12.81592889 2.91271111-29.70965333l-19.22389333-24.46677333c-2.33016889 17.47626667-3.49525333 32.62236445-4.07779556 36.70016z" fill="#CCAC8F" /><path d="M637.24657778 739.19146667l19.22389333 24.46677333c1.74762667-27.37948445 1.16508445-66.40981333-12.81592889-80.97336889 0 0-3.49525333 30.29219555-6.40796444 56.50659556z" fill="#E4C8B1" /><path d="M652.97521778 793.36789333s-30.87473778-87.96387555-95.53692445-103.10997333l-1.74762666 66.40981333H467.14424889l-1.74762667-66.40981333c-64.07964445 15.14609778-95.53692445 103.10997333-95.53692444 103.10997333s-1.74762667 68.73998222 118.83861333 68.73998222l-29.12711111-48.93354666c9.32067555-12.81592889 26.2144-31.45728 51.26371555-31.45728s43.10812445 18.64135111 52.4288 31.45728l-29.1271111 48.35100444c120.00369778 0.58254222 118.83861333-68.15744 118.83861333-68.15744z" fill="#8F5B3D" /><path d="M510.83491555 793.95043555c-37.86524445 0-59.41930667 32.03982222-59.41930666 32.03982223 0 2.33016889 4.66033778 27.96202667 36.70016 36.70016 6.40796445 1.74762667 13.98101333-4.66033778 22.71914666-4.66033778s15.72864 6.40796445 22.13660445 5.24288c32.03982222-8.15559111 36.70016-33.78744889 37.28270222-36.70016 0-1.16508445-21.55406222-32.62236445-59.41930667-32.62236445z" fill="#896950" /><path d="M482.29034667 830.65059555m-9.90321778 0a9.90321778 9.90321778 0 1 0 19.80643556 0 9.90321778 9.90321778 0 1 0-19.80643556 0Z" fill="#AF8C65" /><path d="M482.29034667 830.65059555m-8.15559112 0a8.15559111 8.15559111 0 1 0 16.31118223 0 8.15559111 8.15559111 0 1 0-16.31118223 0Z" fill="#090B12" /><path d="M539.96202667 830.65059555m-9.90321778 0a9.90321778 9.90321778 0 1 0 19.80643556 0 9.90321778 9.90321778 0 1 0-19.80643556 0Z" fill="#AF8C65" /><path d="M539.96202667 830.65059555m-8.15559112 0a8.15559111 8.15559111 0 1 0 16.31118223 0 8.15559111 8.15559111 0 1 0-16.31118223 0Z" fill="#090B12" /></svg>