<?xml version="1.0" standalone="no"?><!DOCTYPE svg PUBLIC "-//W3C//DTD SVG 1.1//EN" "http://www.w3.org/Graphics/SVG/1.1/DTD/svg11.dtd"><svg class="icon" width="200px" height="200.00px" viewBox="0 0 1024 1024" version="1.1" xmlns="http://www.w3.org/2000/svg"><path d="M59.94723555 710.25791999l2.3301689 2.3301689zM62.27740445 712.58808889l-2.3301689-2.3301689z" fill="#E27135" /><path d="M24.99470222 516.85390222c0 269.13450667 217.87079111 487.00529778 487.00529778 487.00529778s487.00529778-217.87079111 487.00529778-487.00529778-217.87079111-487.00529778-487.00529778-487.00529777-487.00529778 217.87079111-487.00529778 487.00529777z" fill="#F25E60" /><path d="M504.42695111 903.66193778h-8.15559111c-2.91271111 0-5.24288-2.33016889-5.24288-5.24288v-26.79694223h19.22389333v26.79694223c-0.58254222 2.91271111-2.91271111 5.24288-5.82542222 5.24288zM527.72864 903.66193778h-8.15559111c-2.91271111 0-5.24288-2.33016889-5.24288-5.24288v-26.79694223h19.22389333v26.79694223c-0.58254222 2.91271111-2.91271111 5.24288-5.82542222 5.24288z" fill="#DBC0A3" /><path d="M405.97731555 356.07224889L333.15953778 277.42904889c-9.32067555-5.82542222-25.63185778 0.58254222-34.95253333 2.91271111-9.90321778 2.91271111-24.46677333 5.82542222-30.29219556 15.72864-2.33016889 4.07779555-3.49525333 8.73813333-4.07779556 13.39847111-6.99050667 37.28270222-6.99050667 83.30353778 24.46677334 110.10048 5.24288 4.66033778 11.06830222 8.15559111 16.89372444 11.06830221l100.77980444-74.56540443z" fill="#914B17" /><path d="M418.79324445 384.03427555l-106.60522667 41.36049778-9.32067556-2.91271111C276.65294222 402.09308444 319.76106667 333.93564445 322.09123555 331.02293333L418.79324445 384.03427555z" fill="#5B321C" /><path d="M303.44988445 422.48206222c-38.44778667-18.05880889-37.28270222-66.40981333-31.45728-94.37184 2.33016889-11.06830222 19.80643555-16.31118222 31.45728-9.32067555l18.6413511 12.23338666s-44.85575111 71.07015111-18.6413511 91.45912889z" fill="#8B6F4F" /><path d="M718.80248889 430.63765332c6.40796445-2.91271111 11.65084445-6.40796445 16.89372444-11.06830221 31.45728-26.79694222 31.45728-72.81777778 24.46677334-110.10048-1.16508445-4.66033778-1.74762667-9.32067555-4.07779556-13.39847111-5.82542222-9.90321778-19.80643555-12.81592889-30.29219556-15.72864-9.32067555-2.91271111-25.63185778-8.73813333-34.95253333-2.91271111l-72.81777777 78.6432 100.77980444 74.56540444z" fill="#914B17" /><path d="M701.90876445 331.02293333c2.33016889 2.91271111 45.43829333 71.07015111 19.22389333 91.45912889l-9.32067556 2.91271111-106.60522667-41.36049778 96.7020089-53.01134222z" fill="#5B321C" /><path d="M701.90876445 331.02293333l18.6413511-12.23338666c11.65084445-6.99050667 29.12711111-1.74762667 31.45728 9.32067555 5.82542222 27.96202667 6.99050667 76.31303111-31.45728 94.37184 26.2144-20.38897778-18.64135111-91.45912889-18.6413511-91.45912889z" fill="#8B6F4F" /><path d="M856.28245333 660.15928888c1.74762667 58.83676445-33.20490667 108.35285333-61.16693333 138.6450489-15.72864 16.89372445-36.70016 29.12711111-60.58439111 36.11761777-2.33016889 0.58254222-19.80643555 4.07779555-22.13660444 4.07779555-1.16508445 0-8.15559111 1.16508445-10.48576 1.16508445-33.78744889 1.74762667-73.40032 0-107.77031112-2.33016888-3.49525333 0-22.71914667-1.74762667-22.71914666-1.74762668s-20.97152-32.03982222-59.41930667-32.03982221-59.41930667 32.03982222-59.41930667 32.03982221c-0.58254222 0-8.73813333 0.58254222-12.81592888 1.16508446-3.49525333 0-84.46862222 4.66033778-117.6735289 2.9127111-11.06830222-0.58254222-22.13660445-2.33016889-32.62236444-5.24288-23.88423111-6.40796445-44.85575111-19.22389333-60.58439111-36.11761778-27.96202667-30.29219555-62.33201778-79.80828445-61.16693333-138.64504889 1.16508445-32.62236445 12.81592889-67.57489778 43.69066666-103.10997333 2.33016889-2.91271111 4.66033778-5.24288 6.99050667-8.1555911 9.90321778-0.58254222 22.71914667 2.33016889 32.03982222-1.74762667 8.15559111-3.49525333 13.39847111-11.65084445 18.05880889-18.05880889 6.40796445-8.73813333 12.81592889-18.05880889 18.64135111-27.37948444 22.13660445-34.95253333 42.52558222-73.98286222 73.98286223-100.77980445 51.26371555-43.69066667 150.29589333 19.80643555 150.29589333 19.80643554s99.03217778-63.49710222 150.29589333-19.80643554c32.03982222 26.79694222 52.4288 66.40981333 73.98286222 100.77980445 5.82542222 9.32067555 11.65084445 18.64135111 18.64135112 27.37948444 4.66033778 6.40796445 10.48576 14.56355555 18.05880888 18.05880889 9.32067555 4.66033778 22.13660445 1.74762667 32.03982222 1.74762667 2.33016889 2.91271111 4.66033778 5.24288 6.99050667 8.1555911 32.03982222 36.11761778 43.69066667 71.07015111 44.85575111 103.10997333z" fill="#914B17" /><path d="M653.55776 803.46467555s-30.87473778-87.96387555-95.53692445-103.10997334l-1.74762666 66.40981333H467.14424889l-1.74762667-66.40981333c-64.07964445 15.14609778-95.53692445 103.10997333-95.53692444 103.10997334s-1.74762667 68.73998222 118.83861333 68.73998223l-29.12711111-48.93354668c9.32067555-12.81592889 26.2144-31.45728 51.26371555-31.45728s43.10812445 18.64135111 52.4288 31.45728l-29.1271111 48.35100445c120.58624 0.58254222 119.42115555-68.15744 119.42115555-68.15744z" fill="#7A3C13" /><path d="M997.84021333 700.35470221l2.33016889 2.3301689zM1000.17038222 702.68487111l-2.33016889-2.3301689z" fill="#E27135" /><path d="M746.76451555 464.42510221c-40.19541333-72.81777778-114.17827555-185.83096889-177.67537777-159.61656888-15.14609778 6.40796445-32.03982222 9.90321778-48.35100445 11.06830222h-16.89372444c-16.89372445-1.16508445-33.20490667-4.66033778-48.35100444-11.06830223-64.07964445-26.2144-138.06250667 86.79879111-177.67537778 159.61656889-16.31118222 29.70965333-37.28270222 57.67168-59.41930667 84.46862224 9.90321778-0.58254222 23.88423111 2.91271111 33.20490667-1.16508445 8.15559111-3.49525333 13.39847111-11.65084445 18.05880888-18.05880889 6.40796445-8.73813333 12.81592889-18.05880889 18.64135112-27.37948445 22.13660445-34.95253333 42.52558222-73.98286222 73.98286222-100.77980445 16.31118222-13.98101333 37.28270222-16.89372445 58.25422222-14.56355554 15.72864 1.74762667 31.45728 5.82542222 45.43829334 11.06830222l13.98101333 83.88608c0 0.58254222 0 1.16508445 0.58254222 1.74762665 0 2.91271111 0 9.32067555-0.58254222 18.05880891-13.39847111-19.22389333-37.86524445-32.62236445-65.24472889-32.62236445-42.52558222 0-76.31303111 30.29219555-76.31303111 66.99235555s34.36999111 66.99235555 76.31303111 66.99235555c14.56355555 0 28.54456889-3.49525333 40.19541333-9.90321777-26.2144 44.27320889-79.80828445 76.31303111-186.99605333 35.53507555 0 0-39.61287111 157.2864 53.59388444 174.76266667h48.35100445l82.13845333 32.03982223 1.16508444-2.3301689c1.16508445 6.40796445 7.57304889 29.12711111 36.11761778 38.44778667 6.40796445 1.74762667 13.98101333-5.82542222 22.71914667-5.82542222s15.72864 8.15559111 22.13660445 6.40796445c27.37948445-8.15559111 34.36999111-28.54456889 36.70016-36.70016l82.13845333-32.03982223h48.35100444c93.20675555-17.47626667 53.59388445-174.76266667 53.59388445-174.76266667-107.77031111 40.77795555-160.78165333 8.73813333-186.99605334-35.53507555 11.65084445 6.40796445 25.63185778 9.90321778 40.19541334 9.90321777 42.52558222 0 76.31303111-30.29219555 76.31303111-66.99235555s-34.36999111-66.99235555-76.31303111-66.99235555c-27.96202667 0-51.84625778 12.81592889-65.24472889 32.62236445-0.58254222-8.73813333-0.58254222-15.14609778-0.58254223-18.05880891 0-0.58254222 0.58254222-1.16508445 0.58254223-1.74762665l13.39847111-83.30353779c32.62236445-12.23338667 76.89557333-22.13660445 105.44014222 2.3301689 32.03982222 26.79694222 52.4288 66.40981333 73.98286222 100.77980445 5.82542222 9.32067555 11.65084445 18.64135111 18.64135112 27.37948444 4.66033778 6.40796445 10.48576 14.56355555 18.05880888 18.05880888 9.32067555 4.66033778 22.13660445 1.74762667 32.03982222 1.74762668-21.55406222-26.2144-41.36049778-54.75896889-57.67168-84.46862224z" fill="#AB6122" /><path d="M577.24472889 810.45518221H446.17272889V442.28849778c0-58.83676445 27.96202667-106.02268445 62.91456-106.02268446h5.82542222c34.95253333 0 62.91456 47.18592 62.91456 106.02268446v368.16668443z" fill="#BC692A" /><path d="M554.52558222 766.76451554H473.55221333c-4.66033778 0-8.73813333 2.33016889-11.65084444 5.82542224-4.66033778 5.82542222-11.06830222 15.14609778-13.98101334 25.04931555-1.16508445 2.91271111-1.74762667 5.82542222-1.74762666 9.32067556 0 5.24288 1.16508445 10.48576 2.91271111 15.72864 0 0.58254222 0 0.58254222 0.58254222 1.16508443 1.16508445 3.49525333 2.33016889 7.57304889 4.07779556 11.65084446 6.40796445 19.22389333 13.98101333 37.86524445 36.11761777 37.86524443h50.09863112c29.12711111 0 33.20490667-31.45728 41.94304-54.17642666 6.40796445-16.31118222-6.99050667-36.70016-14.56355556-46.02083556-4.07779555-4.07779555-8.15559111-6.40796445-12.81592889-6.40796445z" fill="#38281F" /><path d="M297.62446222 530.25237333m-29.12711111 0a29.12711111 29.12711111 0 1 0 58.25422222 0 29.12711111 29.12711111 0 1 0-58.25422222 0Z" fill="#5C331F" /><path d="M297.62446222 530.25237333m-24.46677333 0a24.46677333 24.46677333 0 1 0 48.93354666 0 24.46677333 24.46677333 0 1 0-48.93354666 0Z" fill="#090B12" /><path d="M308.11022222 523.84440889m-6.40796444 0a6.40796445 6.40796445 0 1 0 12.81592889 0 6.40796445 6.40796445 0 1 0-12.81592889 0Z" fill="#FFFFFF" /><path d="M727.54062222 530.25237333m-29.12711111 0a29.12711111 29.12711111 0 1 0 58.25422222 0 29.12711111 29.12711111 0 1 0-58.25422222 0Z" fill="#5C331F" /><path d="M727.54062222 530.25237333m-24.46677333 0a24.46677333 24.46677333 0 1 0 48.93354666 0 24.46677333 24.46677333 0 1 0-48.93354666 0Z" fill="#090B12" /><path d="M739.77400889 523.84440889m-6.40796444 0a6.40796445 6.40796445 0 1 0 12.81592888 0 6.40796445 6.40796445 0 1 0-12.81592888 0Z" fill="#FFFFFF" /><path d="M485.20305778 848.90296888c-14.56355555-0.58254222-27.37948445-9.32067555-32.62236445-13.98101333-1.16508445-4.07779555-2.33016889-7.57304889-4.07779555-11.65084445-0.58254222-1.74762667-1.16508445-2.91271111-1.74762667-4.66033777-2.33016889-5.24288-1.74762667-11.06830222-0.58254222-16.89372445 0-1.74762667 0.58254222-2.91271111 1.16508444-4.07779555 5.24288 8.15559111 19.80643555 27.96202667 32.03982222 28.54456888 15.14609778 0.58254222 25.04931555 23.30168889 5.82542223 22.71914667zM542.87473778 848.90296888c14.56355555-0.58254222 27.37948445-9.32067555 32.62236444-13.98101333 1.16508445-4.07779555 2.33016889-7.57304889 4.07779556-11.65084445 0.58254222-1.74762667 1.16508445-2.91271111 1.74762667-4.66033777 2.33016889-5.24288 1.74762667-11.06830222 0.58254222-16.89372445 0-1.74762667-0.58254222-2.91271111-1.16508445-4.07779555-5.24288 8.15559111-19.80643555 27.96202667-32.03982222 28.54456888-15.14609778 0.58254222-25.04931555 23.30168889-5.82542222 22.71914667z" fill="#0E070C" /><path d="M557.43829333 774.92010667c-2.33016889-2.91271111-5.82542222-5.24288-9.32067555-5.24288001H475.88238222c-3.49525333 0-7.57304889 1.74762667-9.32067555 5.24288001-4.66033778 6.99050667-12.23338667 18.64135111-11.06830222 20.97152 1.74762667 2.91271111 56.50659555 1.74762667 56.50659555 1.74762666s54.75896889 1.16508445 56.50659555-1.74762666c1.16508445-2.33016889-6.40796445-14.56355555-11.06830222-20.97152z" fill="#58423F" /></svg>