<?xml version="1.0" standalone="no"?><!DOCTYPE svg PUBLIC "-//W3C//DTD SVG 1.1//EN" "http://www.w3.org/Graphics/SVG/1.1/DTD/svg11.dtd"><svg class="icon" width="200px" height="200.00px" viewBox="0 0 1024 1024" version="1.1" xmlns="http://www.w3.org/2000/svg"><path fill="#2c2c2c" d="M853.333333 121.6a123.733333 123.733333 0 0 1 123.733334 123.733333v426.666667a123.733333 123.733333 0 0 1-123.733334 123.733333h-198.976l-117.269333 97.770667a38.4 38.4 0 0 1-49.130667 0.021333l-2.56-2.346666-95.744-95.445334H170.666667a123.733333 123.733333 0 0 1-123.648-118.997333L46.933333 672v-426.666667A123.733333 123.733333 0 0 1 170.666667 121.6z m0 76.8H170.666667a46.933333 46.933333 0 0 0-46.933334 46.933333v426.666667A46.933333 46.933333 0 0 0 170.666667 718.933333h234.88a38.4 38.4 0 0 1 27.093333 11.2l82.176 81.941334 101.077333-84.245334a38.4 38.4 0 0 1 21.226667-8.746666l3.349333-0.149334H853.333333a46.933333 46.933333 0 0 0 46.933334-46.933333v-426.666667A46.933333 46.933333 0 0 0 853.333333 198.4z m-554.666666 196.266667a64 64 0 1 1 0 128 64 64 0 0 1 0-128z m213.333333 0a64 64 0 1 1 0 128 64 64 0 0 1 0-128z m213.333333 0a64 64 0 1 1 0 128 64 64 0 0 1 0-128z"  /></svg>