<?xml version="1.0" encoding="UTF-8"?>
<svg id="_图层_1" xmlns="http://www.w3.org/2000/svg" version="1.1" viewBox="0 0 200 200">
  <!-- Generator: Adobe Illustrator 29.7.1, SVG Export Plug-In . SVG Version: 2.1.1 Build 8)  -->
  <defs>
    <style>
      .st0 {
        fill: #fff;
      }
    </style>
  </defs>
  <path class="st0" d="M118.8,168.3h0c-3.9-2.5-9.1-1.3-11.5,2.6-.7,1.3-1.8,2.3-3,3-4,2.3-9.1,1-11.4-3s-7.4-5.4-11.4-3c-4,2.3-5.4,7.4-3.1,11.4,4.5,7.7,12.7,12.5,21.7,12.5s17.2-4.8,21.7-12.5c2.1-3.9.8-8.7-2.9-11Z"/>
  <path class="st0" d="M25.1,66.7c0-17.1,5.9-32.1,15.1-45.2,2.3-3.6,1.5-8.3-1.9-11-3.6-2.9-8.9-2.2-11.7,1.4-5.4,7.6-9.9,16-13.1,25.2-3.2,9.1-5,19-5,29.6s3.7,8.3,8.3,8.3,8.3-3.7,8.3-8.3Z"/>
  <path class="st0" d="M179,122.1l-.2-.2-4-4.2c-3.9-4.2-7.3-8.5-10-14.3-3.7-7.8-6.5-18.9-6.5-36.7,0-32.2-26.1-58.3-58.3-58.3s-58.3,26.1-58.3,58.3-2.8,29-6.5,36.8-8.5,12.8-14,18.5l-.2.2c-2.8,3.1-4.3,7-4.3,11.2,0,9.2,7.4,16.7,16.6,16.7h134.5c3.7-.3,7.2-1.8,10-4.3,6.8-6.2,7.3-16.7,1.1-23.5v-.2Z"/>
  <path class="st0" d="M173.4,11.8h0c-2.7-3.8-7.9-4.6-11.6-2-3.8,2.7-4.7,7.9-2,11.6,9.2,13.1,15.1,28.1,15.1,45.2s3.7,8.3,8.3,8.3,8.3-3.7,8.3-8.3c0-21.2-7.4-39.5-18.2-54.8Z"/>
</svg>