<?xml version="1.0" standalone="no"?><!DOCTYPE svg PUBLIC "-//W3C//DTD SVG 1.1//EN" "http://www.w3.org/Graphics/SVG/1.1/DTD/svg11.dtd"><svg class="icon" width="200px" height="200.00px" viewBox="0 0 1024 1024" version="1.1" xmlns="http://www.w3.org/2000/svg"><path fill="#ffffff" d="M468.757621 766.592704c-59.874063 0-120.25987-18.934533-174.504747-55.268366-52.709645-39.916042-89.555222-91.090455-105.931035-148.405797-7.676162-19.958021 3.582209-44.521739 24.051974-52.709645 4.093953-1.535232 8.69965-2.558721 13.305347-2.558721 16.887556 0 32.751624 11.258371 39.404298 26.610695 12.281859 40.93953 40.427786 80.343828 77.785108 108.489755 38.38081 25.587206 81.87906 38.892554 125.889055 38.892553 24.563718 0 40.427786 15.864068 40.427786 40.427787 0 28.657671-20.981509 44.521739-40.427786 44.521739z"  /><path fill="#ffffff" d="M1011.206397 954.914543l-183.716142-183.716142c71.132434-84.437781 110.024988-190.368816 110.024987-302.44078 0-125.889055-48.615692-243.590205-137.147426-332.121939C712.347826 48.615692 594.646677 0 468.757621 0 343.38031 0 225.167416 48.615692 137.147426 137.147426 48.615692 225.167416 0 343.38031 0 468.757621s48.615692 243.590205 137.147426 332.121939c88.531734 88.531734 206.232884 137.147426 332.121939 137.147427 112.071964 0 218.002999-38.892554 302.44078-110.024988l183.716142 183.716142c8.69965 8.69965 16.887556 12.281859 28.145927 12.281859s19.446277-3.582209 28.145927-12.281859c15.864068-16.375812 15.864068-40.427786-0.511744-56.803598z m-542.448776-97.743129c-213.909045 0-388.413793-173.993003-388.413793-388.413793 0-213.909045 173.993003-388.413793 388.413793-388.413793 213.909045 0 388.413793 173.993003 388.413793 388.413793 0 214.42079-173.993003 388.413793-388.413793 388.413793z"  /></svg>