<?xml version="1.0" encoding="UTF-8"?>
<svg id="_图层_1" data-name="图层_1" xmlns="http://www.w3.org/2000/svg" version="1.1" viewBox="0 0 200 200">
  <!-- Generator: Adobe Illustrator 29.7.1, SVG Export Plug-In . SVG Version: 2.1.1 Build 8)  -->
  <defs>
    <style>
      .st0 {
        fill: #fff;
      }
    </style>
  </defs>
  <path class="st0" d="M197.5,186.5l-35.9-35.9c13.9-16.5,21.5-37.2,21.5-59.1s-9.5-47.6-26.8-64.9S116.1,0,91.5,0,44,9.5,26.8,26.8C9.5,44,0,67.1,0,91.5s9.5,47.6,26.8,64.9,40.3,26.8,64.9,26.8,42.6-7.6,59.1-21.5l35.9,35.9c1.7,1.7,3.3,2.4,5.5,2.4s3.8-.7,5.5-2.4c3.1-3.2,3.1-7.9,0-11.1ZM91.6,149.7c-11.7,0-23.5-3.7-34.1-10.8-10.3-7.8-17.5-17.8-20.7-29-1.5-3.9.7-8.7,4.7-10.3.8-.3,1.7-.5,2.6-.5,3.3,0,6.4,2.2,7.7,5.2,2.4,8,7.9,15.7,15.2,21.2,7.5,5,16,7.6,24.6,7.6s7.9,3.1,7.9,7.9-4.1,8.7-7.9,8.7Z"/>
</svg>