<?xml version="1.0" standalone="no"?><!DOCTYPE svg PUBLIC "-//W3C//DTD SVG 1.1//EN" "http://www.w3.org/Graphics/SVG/1.1/DTD/svg11.dtd"><svg class="icon" width="200px" height="200.00px" viewBox="0 0 1024 1024" version="1.1" xmlns="http://www.w3.org/2000/svg"><path fill="#2c2c2c" d="M877.6 450.6c-23.1 0-45 5.5-64.4 15.2V313.1c0-80.4-31.3-156-88.2-212.9C668 43.3 592.4 12 512 12s-156 31.3-212.9 88.2c-56.9 56.9-88.2 132.5-88.2 212.9v152.7c-19.4-9.7-41.3-15.2-64.4-15.2C66.8 450.6 2 515.4 2 595v83.5C2 758.2 66.8 823 146.4 823c79.6 0 144.4-64.8 144.4-144.4V313c0.1-121.8 99.3-221 221.2-221 121.9 0 221.1 99.2 221.1 221.1V783c0 3.5 0.5 7 1.3 10.2-0.9 3.3-1.3 6.7-1.3 10.2 0 19.1-15.5 34.6-34.6 34.6H564.2c-22.1 0-40 17.9-40 40s17.9 40 40 40h134.3c61.8 0 112.2-49.1 114.5-110.3 19.4 9.7 41.3 15.3 64.5 15.3 79.6 0 144.4-64.8 144.4-144.4V595c0.1-79.6-64.7-144.4-144.3-144.4zM210.9 668v10.6c0 35.5-28.9 64.4-64.4 64.4C111 743 82 714.1 82 678.6V595c0-35.5 28.9-64.4 64.4-64.4 35.5 0 64.4 28.9 64.4 64.4v73h0.1zM942 678.6c0 35.5-28.9 64.4-64.4 64.4-35.5 0-64.4-28.9-64.4-64.4V595c0-35.5 28.9-64.4 64.4-64.4 35.5 0 64.4 28.9 64.4 64.4v83.6z"  /><path fill="#2c2c2c" d="M584.1 972H458.7c-51.9 0-94-42.1-94-94s42.1-94 94-94h125.4c51.9 0 94 42.1 94 94s-42.1 94-94 94z"  /></svg>